<svg width="60" height="60" viewBox="0 0 60 60" fill="none" xmlns="http://www.w3.org/2000/svg">
<path d="M42.5 37.5L46.375 41.375C43.975 45.6 38.05 48.975 32.5 49.8V27.5H40V22.5H32.5V19.55C35.4 18.5 37.5 15.75 37.5 12.5C37.5 8.375 34.125 5 30 5C25.875 5 22.5 8.375 22.5 12.5C22.5 15.75 24.6 18.5 27.5 19.55V22.5H20V27.5H27.5V49.8C21.95 48.975 16.025 45.6 13.625 41.375L17.5 37.5L7.5 30V37.5C7.5 47.2 19.8 55 30 55C40.2 55 52.5 47.2 52.5 37.5V30L42.5 37.5ZM30 10C31.375 10 32.5 11.125 32.5 12.5C32.5 13.875 31.375 15 30 15C28.625 15 27.5 13.875 27.5 12.5C27.5 11.125 28.625 10 30 10Z" fill="white"/>
</svg>
