<svg width="30" height="30" viewBox="0 0 30 30" fill="none" xmlns="http://www.w3.org/2000/svg">
<path d="M15 5.8125C9.93402 5.8125 5.8125 9.72822 5.8125 14.5406C5.8125 16.8789 6.8121 19.1234 8.56876 20.7624V23.2651C8.56876 23.9496 9.28906 24.3952 9.90095 24.0892L12.3163 22.882C13.1984 23.1383 14.0996 23.2688 15 23.2688C20.066 23.2688 24.1875 19.3531 24.1875 14.5406C24.1875 9.72822 20.066 5.8125 15 5.8125ZM15.43 16.7071L13.3922 15.0772L8.56876 17.2206L13.3463 12.4431C13.677 12.1124 14.2044 12.083 14.57 12.3751L16.6078 14.005L21.4313 11.8606L16.6538 16.6382C16.3221 16.9698 15.7957 16.9992 15.43 16.7071Z" fill="white"/>
<path d="M0.5 11.1C0.5 5.24578 5.24578 0.5 11.1 0.5H18.9C24.7542 0.5 29.5 5.24578 29.5 11.1V18.9C29.5 24.7542 24.7542 29.5 18.9 29.5H11.1C5.24578 29.5 0.5 24.7542 0.5 18.9V11.1Z" stroke="white"/>
</svg>
