<svg width="264" height="70" viewBox="0 0 264 70" fill="none" xmlns="http://www.w3.org/2000/svg">
<path fill-rule="evenodd" clip-rule="evenodd" d="M33.5468 9.94903L34.1148 2.32949C34.2096 1.05192 35.1626 0 36.4439 0C37.7252 0 38.6782 1.05192 38.7734 2.32949L39.3397 9.93097C44.1385 10.4643 48.531 12.3439 52.1311 15.1835L57.9216 10.196C58.8922 9.35987 60.3097 9.29012 61.216 10.196C62.1218 11.1019 62.0521 12.5197 61.216 13.4904L56.2401 19.2669C59.1033 22.8507 61.0099 27.2322 61.573 32.0247L69.1931 32.5927C70.4707 32.6879 71.5226 33.6409 71.5226 34.9222C71.5226 36.2035 70.4707 37.1565 69.1931 37.2517L61.591 37.818C61.0575 42.6163 59.1782 47.0083 56.3389 50.6081L61.3268 56.3989C62.1629 57.3696 62.2326 58.7871 61.3268 59.6934C60.4209 60.5992 59.003 60.5295 58.0323 59.6934L52.2556 54.7172C48.6719 57.5805 44.2905 59.4872 39.498 60.0505L38.93 67.6705C38.8349 68.9481 37.8818 70 36.6005 70C35.3193 70 34.3662 68.9481 34.2711 67.6705L33.7047 60.0686C28.9061 59.5352 24.5136 57.6557 20.9136 54.8162L15.1228 59.8041C14.1521 60.6402 12.7346 60.7099 11.8283 59.8041C10.9224 58.8982 10.9922 57.4803 11.8283 56.5096L16.8045 50.7328C13.9413 47.1491 12.0347 42.7676 11.4715 37.9752L3.85195 37.4072C2.57438 37.312 1.52246 36.359 1.52246 35.0777C1.52246 33.7965 2.57438 32.8434 3.85195 32.7482L11.4535 32.1819C11.9868 27.3835 13.8663 22.9913 16.7056 19.3914L11.718 13.6008C10.8818 12.6301 10.8121 11.2126 11.718 10.3063C12.6238 9.40047 14.0417 9.47022 15.0124 10.3063L20.7891 15.2821C24.3729 12.4188 28.7544 10.5122 33.5468 9.94903ZM54.3803 34.9998C54.3803 25.137 46.385 17.1417 36.5222 17.1417C26.6599 17.1417 18.6646 25.137 18.6646 34.9998C18.6646 44.8626 26.6594 52.8578 36.5222 52.8578C46.385 52.8578 54.3803 44.8626 54.3803 34.9998Z" fill="white"/>
<path d="M38.536 19.8769L38.5506 19.8751C41.2114 19.5592 43.0294 19.9948 44.6643 21.0247C45.953 21.8366 47.1239 23.0215 48.4991 24.4131C48.7827 24.6999 49.0749 24.9956 49.3786 25.2986C51.9983 25.8477 54.9874 27.1435 57.4917 28.9875C60.0384 30.8626 62.1422 33.3493 62.7857 36.2578C62.95 36.9997 62.8803 38.172 62.7771 39.2523C62.7281 39.765 62.6713 40.2593 62.6197 40.7087C62.5568 41.2565 62.5016 41.7377 62.4773 42.1047C62.44 42.6709 62.6019 43.382 62.8707 44.0911C63.1366 44.7923 63.4876 45.441 63.7795 45.8668C64.1396 46.3921 64.3691 47.0106 64.47 47.5782C64.567 48.1238 64.5616 48.7179 64.341 49.1467C64.0575 49.6977 63.4508 49.8006 63.0369 49.7868C62.5995 49.7723 62.1266 49.6287 61.8144 49.414L61.814 49.4137C61.7163 49.3464 61.5686 49.2074 61.4195 49.062C61.256 48.9025 61.0496 48.6939 60.8171 48.4544C60.3518 47.9749 59.7743 47.3636 59.2109 46.7559C58.6477 46.1484 58.096 45.5418 57.6826 45.072C57.4765 44.8377 57.3015 44.6337 57.1759 44.4792C57.1386 44.4333 57.1038 44.3896 57.073 44.3493C56.99 44.3625 56.8838 44.3825 56.7492 44.4086L56.6976 44.4186C56.2896 44.4979 55.7171 44.6093 55.1499 44.6158C53.9077 44.63 52.1804 43.9197 50.4161 42.505L50.416 42.505C49.5791 41.8337 49.0583 41.5761 48.6722 41.4755C48.3394 41.3888 48.0822 41.4073 47.7028 41.4347C47.6411 41.4391 47.5762 41.4438 47.5071 41.4483C47.5072 41.4483 47.5067 41.4483 47.5056 41.4484L47.5009 41.449C47.4968 41.4496 47.4909 41.4506 47.4833 41.4522C47.4678 41.4554 47.4472 41.4607 47.421 41.4688C47.3679 41.4853 47.3007 41.5108 47.2189 41.5471C47.0549 41.62 46.8534 41.727 46.6221 41.8643C46.1603 42.1382 45.6097 42.5145 45.0541 42.9287C43.9262 43.7696 42.8536 44.7097 42.4647 45.2159C42.0231 45.7909 41.6573 46.1889 41.3149 46.4356C40.948 46.6998 40.5964 46.7981 40.2203 46.7611L40.2202 46.7611C39.925 46.7321 39.7591 46.5211 39.6834 46.3961C39.6015 46.261 39.5466 46.1006 39.5058 45.9526C39.4228 45.6521 39.3594 45.2536 39.2972 44.8449C39.2894 44.7938 39.2817 44.7423 39.2738 44.6904C39.1508 43.8772 39.016 42.9863 38.755 42.2974C38.4593 41.5176 38.0712 40.6196 37.3691 39.8088C36.674 39.0058 35.652 38.267 34.0554 37.8432C32.9252 37.5433 31.288 37.5964 29.3636 37.9348C27.4536 38.2706 25.3157 38.877 23.214 39.6349C21.1132 40.3926 19.0595 41.2977 17.3184 42.2258C15.5951 43.1444 14.2091 44.0693 13.3811 44.8777C13.3594 44.9118 13.3215 44.972 13.256 45.077L13.2559 45.0772C12.1069 46.9178 11.8697 48.3675 11.7547 49.4293C11.7435 49.5334 11.7331 49.638 11.7229 49.7419C11.683 50.1452 11.6443 50.5379 11.5553 50.8488C11.4951 51.0593 11.4031 51.272 11.2468 51.4565C11.086 51.6462 10.8799 51.7792 10.6339 51.8615L10.6338 51.8615C10.1546 52.0217 9.71475 51.9532 9.35015 51.7272C9.00782 51.5151 8.76365 51.185 8.59084 50.866C8.41628 50.5439 8.29041 50.1878 8.20517 49.867C8.06112 49.9997 7.89221 50.1266 7.69459 50.2382C7.18514 50.526 6.20853 50.8532 5.21017 51.0205C4.70509 51.1051 4.17464 51.1523 3.67726 51.1279C3.18595 51.1038 2.6887 51.0082 2.27884 50.7757C1.7127 50.4546 1.32715 50.0341 1.19614 49.5034C1.06722 48.9813 1.21265 48.4629 1.46611 48.0006C1.96379 47.0927 3.00577 46.1685 4.11013 45.3492C5.23243 44.5166 6.49112 43.7414 7.49359 43.1442C7.75588 42.9879 7.9932 42.8482 8.20769 42.722C8.41316 42.601 8.59768 42.4924 8.76312 42.3934C8.92769 42.2949 9.05973 42.214 9.15723 42.1505C9.22871 42.104 9.26496 42.0773 9.27915 42.0669C9.28643 42.0615 9.2879 42.0604 9.28533 42.0631M38.536 19.8769L9.28401 42.0645C9.28452 42.064 9.28497 42.0635 9.28533 42.0631M38.536 19.8769L38.5214 19.8795C38.2017 19.9368 37.9196 20.079 37.726 20.3326C37.5373 20.58 37.4799 20.8718 37.4821 21.14C37.4864 21.6555 37.7124 22.2469 37.9719 22.7758C38.2913 23.4271 38.721 24.0977 39.0666 24.6069C38.8404 24.6197 38.5765 24.6364 38.2798 24.6584C37.2203 24.7369 35.7396 24.8824 34.0516 25.1506C30.6871 25.6852 26.451 26.7144 23.0923 28.7057L23.3473 29.1358L23.0923 28.7057C19.7499 30.6874 16.4201 33.9109 13.8735 36.683C12.5963 38.0733 11.5087 39.3583 10.7069 40.3299C10.3559 40.7553 10.0593 41.1211 9.8263 41.4083C9.79326 41.4491 9.76149 41.4882 9.73104 41.5258C9.47714 41.8387 9.33455 42.0121 9.28533 42.0631M38.536 19.8769L9.28533 42.0631M58.9238 36.5881L58.9238 36.5881C59.2383 36.5568 59.5188 36.7863 59.5501 37.1009C59.5814 37.4158 59.352 37.6959 59.0373 37.7272L59.0373 37.7272C58.7228 37.7586 58.4423 37.529 58.411 37.2144L58.411 37.2141C58.3795 36.9001 58.6089 36.6195 58.9238 36.5881ZM8.51619 48.4285C8.51619 48.4285 8.49707 48.5202 8.44114 48.6613C8.47395 48.6631 8.5048 48.6615 8.5332 48.6573L8.51619 48.4285ZM10.4752 51.3873C9.31343 51.7758 8.76956 50.236 8.61078 49.3982L12.991 44.5601C12.991 44.5601 12.9807 44.5736 12.8318 44.8124C11.4979 46.9492 11.3338 48.5991 11.2221 49.722C11.1324 50.6241 11.0765 51.1861 10.4752 51.3873ZM8.08316 49.2692C7.92852 49.4583 7.72214 49.6484 7.44868 49.8029C6.56332 50.303 3.78541 51.0554 2.52548 50.3408C-0.669807 48.5288 5.68752 44.786 8.45967 43.1539C9.09454 42.7801 9.54138 42.517 9.64237 42.4132L8.08316 49.2692Z" fill="#FFF114" stroke="#1F306E"/>
<path d="M60.0478 37.0516C59.9892 36.4621 59.4636 36.0321 58.8745 36.0908C58.2849 36.1495 57.8545 36.675 57.9136 37.2642C57.9723 37.8537 58.4978 38.2837 59.087 38.225C59.6765 38.1663 60.1065 37.6412 60.0478 37.0516Z" fill="#1F306E"/>
<path fill-rule="evenodd" clip-rule="evenodd" d="M53.6779 52.5203L49.3955 48.9112L50.9303 47.0896C51.3156 46.6322 51.6356 46.3323 51.8862 46.1899C52.1385 46.0463 52.4151 45.9962 52.7162 46.0373C53.019 46.0787 53.2959 46.2047 53.5494 46.418C53.8715 46.6892 54.0574 47.0063 54.1078 47.371C54.1587 47.7362 54.0533 48.1276 53.7919 48.5489C54.0582 48.4541 54.3064 48.4016 54.5386 48.3914C54.772 48.3799 55.1421 48.4119 55.648 48.4874L56.9231 48.6691L56.0525 49.7026L54.5948 49.5344C54.0754 49.4769 53.7378 49.4536 53.581 49.4626C53.4268 49.472 53.2934 49.5089 53.1843 49.5738C53.0744 49.6398 52.9361 49.7715 52.7675 49.9709L52.6202 50.1465L54.4081 51.6534L53.6779 52.5203ZM51.9387 49.5717L52.4778 48.9317C52.8274 48.5169 53.0268 48.2437 53.0793 48.1103C53.131 47.9782 53.1392 47.8449 53.1023 47.7153C53.0657 47.584 52.9829 47.4646 52.8536 47.3563C52.7092 47.2344 52.5611 47.1758 52.4064 47.177C52.253 47.1786 52.1057 47.2402 51.9654 47.3604C51.8961 47.4231 51.7131 47.6287 51.4181 47.9786L50.8495 48.6535L51.9387 49.5717Z" fill="#1F306E"/>
<path fill-rule="evenodd" clip-rule="evenodd" d="M50.8451 54.9214L49.7805 55.52L48.7339 54.6457L46.7761 55.7469L46.9956 57.086L45.9503 57.6739L45.1006 51.7267L46.1451 51.1392L50.8451 54.9214ZM47.9495 54.0008L46.2555 52.5759L46.612 54.7528L47.9495 54.0008Z" fill="#1F306E"/>
<path fill-rule="evenodd" clip-rule="evenodd" d="M40.8108 59.0796L39.8922 54.5174L38.2668 54.8448L38.0801 53.9168L42.4347 53.04L42.6218 53.9681L41.0045 54.2934L41.9231 58.856L40.8108 59.0796Z" fill="#1F306E"/>
<path fill-rule="evenodd" clip-rule="evenodd" d="M30.7082 57.1084L31.816 57.1437C31.834 57.5183 31.9308 57.8026 32.1085 58.0011C32.2861 58.1989 32.545 58.3203 32.8851 58.3646C33.2441 58.4118 33.5256 58.3712 33.7282 58.2424C33.9305 58.114 34.0454 57.9478 34.0724 57.7439C34.0897 57.6118 34.0655 57.4957 34.0019 57.3923C33.9371 57.2906 33.8132 57.1929 33.631 57.1006C33.5063 57.0366 33.2199 56.9176 32.7694 56.74C32.191 56.5115 31.7946 56.2727 31.5821 56.0224C31.2822 55.6717 31.162 55.2757 31.2194 54.8351C31.2568 54.552 31.3721 54.2964 31.5637 54.0708C31.7561 53.8447 32.0113 53.6872 32.3288 53.5978C32.6472 53.5075 33.0176 53.4911 33.4443 53.5469C34.1385 53.638 34.6415 53.8607 34.9512 54.2152C35.2622 54.5709 35.3919 55.0054 35.3426 55.524L34.2132 55.4148C34.2025 55.1219 34.1274 54.9028 33.9879 54.7568C33.8472 54.6111 33.6207 54.5168 33.3081 54.4757C32.9848 54.4331 32.7227 54.4675 32.5229 54.5779C32.394 54.6489 32.3194 54.7564 32.3005 54.9008C32.2833 55.0329 32.3243 55.1527 32.4228 55.2606C32.5483 55.3988 32.8745 55.5683 33.4017 55.7689C33.9293 55.9683 34.3137 56.1554 34.5545 56.3264C34.7978 56.4992 34.9775 56.7133 35.0928 56.9718C35.2089 57.2303 35.2442 57.5347 35.1982 57.885C35.1564 58.203 35.0296 58.4902 34.8154 58.745C34.6021 58.9985 34.3256 59.1733 33.9846 59.2652C33.6433 59.3583 33.2314 59.3723 32.7497 59.3095C32.0478 59.2172 31.53 58.985 31.1965 58.6116C30.8625 58.2383 30.7009 57.7373 30.7082 57.1084Z" fill="#1F306E"/>
<path fill-rule="evenodd" clip-rule="evenodd" d="M27.4441 57.8449L26.3717 57.2603L26.5571 55.9097L24.5845 54.8352L23.5658 55.7321L22.5127 55.1589L27.1007 51.2803L28.153 51.8534L27.4441 57.8449ZM26.6863 54.9025L26.994 52.7105L25.339 54.1681L26.6863 54.9025Z" fill="#1F306E"/>
<path fill-rule="evenodd" clip-rule="evenodd" d="M17.0137 49.8945L21.1344 46.1016L23.9418 49.1519L23.2452 49.7927L21.2058 47.5773L20.2913 48.4196L22.1871 50.4791L21.4909 51.1203L19.5947 49.06L18.4779 50.0877L20.5916 52.384L19.895 53.0252L17.0137 49.8945Z" fill="#1F306E"/>
<path d="M86.5537 31.5234L87.8662 28.3203C89.0381 29.112 89.9938 29.5078 90.7334 29.5078C91.3376 29.5078 91.6396 29.3099 91.6396 28.9141C91.6396 28.5964 91.236 28.3516 90.4287 28.1797C90.2673 28.1484 90.0641 28.1068 89.8193 28.0547C88.0589 27.6276 87.1787 26.5964 87.1787 24.9609C87.1787 23.6484 87.6579 22.6146 88.6162 21.8594C89.5016 21.1562 90.6162 20.8047 91.96 20.8047C93.2725 20.8047 94.5589 21.151 95.8193 21.8438L94.5693 24.8359C94.1318 24.5286 93.736 24.3047 93.3818 24.1641C92.9912 24.013 92.6032 23.9375 92.2178 23.9375C91.6188 23.9375 91.3193 24.1198 91.3193 24.4844C91.3193 24.8021 91.8896 25.0833 93.0303 25.3281C93.1396 25.3542 93.2803 25.388 93.4521 25.4297C94.2178 25.6016 94.8324 25.9609 95.2959 26.5078C95.7594 27.0547 95.9912 27.7188 95.9912 28.5C95.9912 29.8438 95.4964 30.9167 94.5068 31.7188C93.5902 32.4427 92.4365 32.8047 91.0459 32.8047C89.5355 32.8047 88.0381 32.3776 86.5537 31.5234ZM100.733 28.3438H102.452L102.093 27.0469C101.817 26.0312 101.663 25.1927 101.632 24.5312H101.554C101.522 25.1927 101.366 26.0312 101.085 27.0469L100.733 28.3438ZM95.2803 32.5L99.3584 21.0625H103.937L107.937 32.5H103.522L103.155 31.0625H100.046L99.6943 32.5H95.2803ZM114.007 28.9609C114.616 28.9609 115.098 28.7474 115.452 28.3203C115.77 27.9297 115.929 27.4245 115.929 26.8047C115.929 26.1745 115.77 25.6615 115.452 25.2656C115.098 24.8385 114.616 24.625 114.007 24.625C113.392 24.625 112.916 24.8307 112.577 25.2422C112.244 25.6536 112.077 26.1745 112.077 26.8047C112.077 27.4349 112.244 27.9531 112.577 28.3594C112.916 28.7604 113.392 28.9609 114.007 28.9609ZM120.124 26.8047C120.124 27.6589 119.973 28.4375 119.671 29.1406C119.353 29.8854 118.921 30.5312 118.374 31.0781C117.202 32.2292 115.746 32.8047 114.007 32.8047C112.272 32.8047 110.812 32.224 109.624 31.0625C108.473 29.9323 107.897 28.513 107.897 26.8047C107.897 25.0859 108.478 23.6562 109.64 22.5156C110.801 21.375 112.257 20.8047 114.007 20.8047C115.757 20.8047 117.213 21.375 118.374 22.5156C119.541 23.6562 120.124 25.0859 120.124 26.8047ZM127.327 32.5V21.0625H132.241C133.851 21.0625 135.051 21.349 135.843 21.9219C136.77 22.5938 137.233 23.6979 137.233 25.2344C137.233 26.6562 136.827 27.6745 136.015 28.2891C135.301 28.8464 134.207 29.125 132.733 29.125H131.437V32.5H127.327ZM131.452 24.2422V26.1484H132.093C132.478 26.1484 132.778 26.0625 132.991 25.8906C133.205 25.7188 133.312 25.4896 133.312 25.2031C133.312 24.5625 132.905 24.2422 132.093 24.2422H131.452ZM138.655 32.5V21.0625H142.765V24.8672H145.28V21.0625H149.39V32.5H145.28V28.4688H142.765V32.5H138.655ZM151.413 27.2656V21.0781H155.522V27.3125C155.522 27.901 155.572 28.3281 155.671 28.5938C155.843 29.0104 156.174 29.2188 156.663 29.2188C157.153 29.2188 157.483 29.0104 157.655 28.5938C157.759 28.3177 157.812 27.8906 157.812 27.3125V21.0781H161.929V23.6328C162.429 23.4297 162.663 22.5885 162.632 21.1094H163.874C163.832 22.3229 163.647 23.1693 163.319 23.6484C163.038 24.0443 162.575 24.2969 161.929 24.4062V27.2656C161.929 28.8021 161.705 29.9115 161.257 30.5938C160.283 32.0677 158.752 32.8047 156.663 32.8047C154.549 32.8047 153.017 32.0677 152.069 30.5938C151.856 30.2656 151.689 29.8281 151.569 29.2812C151.465 28.7812 151.413 28.1094 151.413 27.2656ZM169.772 28.9609C170.382 28.9609 170.864 28.7474 171.218 28.3203C171.535 27.9297 171.694 27.4245 171.694 26.8047C171.694 26.1745 171.535 25.6615 171.218 25.2656C170.864 24.8385 170.382 24.625 169.772 24.625C169.158 24.625 168.681 24.8307 168.343 25.2422C168.009 25.6536 167.843 26.1745 167.843 26.8047C167.843 27.4349 168.009 27.9531 168.343 28.3594C168.681 28.7604 169.158 28.9609 169.772 28.9609ZM175.89 26.8047V26.7891C175.89 27.6432 175.739 28.4219 175.437 29.125C175.119 29.8698 174.687 30.5156 174.14 31.0625C172.968 32.2135 171.512 32.7891 169.772 32.7891C168.038 32.7891 166.577 32.2083 165.39 31.0469C164.239 29.9167 163.663 28.4974 163.663 26.7891C163.663 25.0703 164.244 23.6406 165.405 22.5C166.567 21.3594 168.022 20.7891 169.772 20.7891C170.637 20.7891 171.439 20.9323 172.179 21.2188C172.882 21.4948 173.541 21.9271 174.155 22.5156C174.478 22.8125 174.726 23.112 174.897 23.4141C175.205 23.3828 175.418 23.138 175.538 22.6797C175.621 22.3047 175.653 21.6953 175.632 20.8516H176.882C176.892 22.0443 176.762 22.888 176.491 23.3828C176.257 23.8307 175.853 24.0859 175.28 24.1484C175.687 24.9245 175.89 25.8099 175.89 26.8047ZM177.608 32.5V21.0625H181.64L185.194 27.0469C185.106 26.5625 185.062 25.8464 185.062 24.8984V21.0625H189.03V32.5H184.968L181.452 26.5625C181.535 27.0208 181.577 27.625 181.577 28.375V32.5H177.608ZM198.405 28.4062H196.616V25.7188H202.937C202.947 25.8542 202.957 26.0286 202.968 26.2422V26.5469C202.968 27.8698 202.723 28.9479 202.233 29.7812C201.655 30.7604 200.9 31.5104 199.968 32.0312C199.035 32.5469 197.991 32.8047 196.835 32.8047C195.075 32.8047 193.616 32.237 192.46 31.1016C191.304 29.9661 190.726 28.5339 190.726 26.8047C190.726 25.0964 191.299 23.6693 192.444 22.5234C193.59 21.3776 195.054 20.8047 196.835 20.8047C199.236 20.8047 201.022 21.8125 202.194 23.8281L198.53 25.1875C198.16 24.5573 197.619 24.2422 196.905 24.2422C196.233 24.2422 195.72 24.5104 195.366 25.0469C195.059 25.5052 194.905 26.0911 194.905 26.8047C194.905 27.5495 195.064 28.1458 195.382 28.5938C195.746 29.099 196.285 29.3516 196.999 29.3516C197.843 29.3516 198.312 29.0365 198.405 28.4062ZM213.968 29.3125C214.025 29.3229 214.095 29.3281 214.179 29.3281H214.437C216.28 29.3281 217.202 28.4714 217.202 26.7578C217.202 25.0703 216.275 24.2266 214.421 24.2266H214.163C214.075 24.2266 214.015 24.2318 213.983 24.2422L213.968 25.4453H215.601V27.9375H213.968V29.3125ZM210.179 32.5V28.0391H208.882V25.3516H210.179V21.0625H213.507C215.616 21.0625 217.124 21.3021 218.03 21.7812C220.082 22.8594 221.108 24.5286 221.108 26.7891C221.108 29.0391 220.082 30.7031 218.03 31.7812C217.124 32.2604 215.509 32.5 213.187 32.5H210.179ZM228.522 28.9609C229.132 28.9609 229.614 28.7474 229.968 28.3203C230.285 27.9297 230.444 27.4245 230.444 26.8047C230.444 26.1745 230.285 25.6615 229.968 25.2656C229.614 24.8385 229.132 24.625 228.522 24.625C227.908 24.625 227.431 24.8307 227.093 25.2422C226.759 25.6536 226.593 26.1745 226.593 26.8047C226.593 27.4349 226.759 27.9531 227.093 28.3594C227.431 28.7604 227.908 28.9609 228.522 28.9609ZM234.64 26.8047C234.64 27.6589 234.489 28.4375 234.187 29.1406C233.869 29.8854 233.437 30.5312 232.89 31.0781C231.718 32.2292 230.262 32.8047 228.522 32.8047C226.788 32.8047 225.327 32.224 224.14 31.0625C222.989 29.9323 222.413 28.513 222.413 26.8047C222.413 25.0859 222.994 23.6562 224.155 22.5156C225.317 21.375 226.772 20.8047 228.522 20.8047C230.272 20.8047 231.728 21.375 232.89 22.5156C234.056 23.6562 234.64 25.0859 234.64 26.8047ZM226.397 20.4062L227.53 18.3594H229.241L230.382 20.4062H229.421L228.397 19.4141L227.358 20.4062H226.397ZM236.358 32.5V21.0625H240.39L243.944 27.0469C243.856 26.5625 243.812 25.8464 243.812 24.8984V21.0625H247.78V32.5H243.718L240.202 26.5625C240.285 27.0208 240.327 27.625 240.327 28.375V32.5H236.358ZM257.155 28.4062H255.366V25.7188H261.687C261.697 25.8542 261.707 26.0286 261.718 26.2422V26.5469C261.718 27.8698 261.473 28.9479 260.983 29.7812C260.405 30.7604 259.65 31.5104 258.718 32.0312C257.785 32.5469 256.741 32.8047 255.585 32.8047C253.825 32.8047 252.366 32.237 251.21 31.1016C250.054 29.9661 249.476 28.5339 249.476 26.8047C249.476 25.0964 250.049 23.6693 251.194 22.5234C252.34 21.3776 253.804 20.8047 255.585 20.8047C257.986 20.8047 259.772 21.8125 260.944 23.8281L257.28 25.1875C256.91 24.5573 256.369 24.2422 255.655 24.2422C254.983 24.2422 254.47 24.5104 254.116 25.0469C253.809 25.5052 253.655 26.0911 253.655 26.8047C253.655 27.5495 253.814 28.1458 254.132 28.5938C254.496 29.099 255.035 29.3516 255.749 29.3516C256.593 29.3516 257.062 29.0365 257.155 28.4062Z" fill="#FFF114"/>
<path d="M89.2295 42.8867V49.9414H93.5244V51.5H87.4307V42.8867H89.2295ZM101.2 48.3066C101.2 49.4043 100.872 50.252 100.216 50.8496C99.626 51.3965 98.8662 51.6699 97.9365 51.6699C97.0186 51.6699 96.2627 51.3965 95.6689 50.8496C95.0049 50.2441 94.6729 49.3965 94.6729 48.3066C94.6729 47.2129 95.001 46.3652 95.6572 45.7637C96.2471 45.2207 97.0068 44.9492 97.9365 44.9492C98.8662 44.9492 99.626 45.2207 100.216 45.7637C100.872 46.3652 101.2 47.2129 101.2 48.3066ZM99.4717 48.3066C99.4717 47.7793 99.3799 47.3555 99.1963 47.0352C98.9424 46.5859 98.5225 46.3613 97.9365 46.3613C97.3623 46.3613 96.9463 46.582 96.6885 47.0234C96.4971 47.3594 96.4014 47.7871 96.4014 48.3066C96.4014 48.834 96.4932 49.2578 96.6768 49.5781C96.9346 50.0273 97.3545 50.252 97.9365 50.252C98.5146 50.252 98.9307 50.0312 99.1846 49.5898C99.376 49.2539 99.4717 48.8262 99.4717 48.3066ZM97.3564 44.252L95.6045 42.5H97.4561L98.5811 44.252H97.3564ZM108.073 47.082V51.5H106.392V47.6094C106.392 47.2578 106.345 46.9941 106.251 46.8184C106.083 46.5137 105.771 46.3613 105.313 46.3613C104.931 46.3613 104.614 46.4902 104.364 46.748C104.118 47.0059 103.995 47.3652 103.995 47.8262V51.5H102.313V45.1133H103.919V46.0508C104.114 45.7461 104.315 45.5137 104.522 45.3535C104.882 45.084 105.329 44.9492 105.864 44.9492C106.521 44.9492 107.044 45.125 107.435 45.4766C107.86 45.8594 108.073 46.3945 108.073 47.082ZM114.255 45.1133H115.866V51.166C115.866 52.0059 115.722 52.6328 115.433 53.0469C114.937 53.7578 114.001 54.1133 112.626 54.1133C111.888 54.1133 111.259 53.9629 110.739 53.6621C110.142 53.3105 109.843 52.8223 109.843 52.1973H111.665C111.712 52.4043 111.796 52.5527 111.917 52.6426C112.093 52.7754 112.401 52.8418 112.843 52.8418C113.296 52.8418 113.632 52.7246 113.851 52.4902C114.073 52.2559 114.185 51.877 114.185 51.3535V50.5859L114.161 50.5625C113.938 50.957 113.675 51.2246 113.37 51.3652C113.12 51.4863 112.815 51.5469 112.456 51.5469C111.647 51.5469 110.995 51.2754 110.499 50.7324C109.964 50.1387 109.696 49.3066 109.696 48.2363C109.696 47.1816 109.96 46.3574 110.487 45.7637C110.976 45.2207 111.601 44.9492 112.362 44.9492C112.882 44.9492 113.313 45.0801 113.657 45.3418C113.88 45.5098 114.071 45.7461 114.231 46.0508L114.255 45.1133ZM111.425 48.3301C111.425 48.8105 111.521 49.207 111.712 49.5195C111.954 49.9102 112.306 50.1055 112.767 50.1055C113.278 50.1055 113.655 49.9102 113.897 49.5195C114.089 49.207 114.185 48.7871 114.185 48.2598C114.185 47.7168 114.065 47.2773 113.827 46.9414C113.562 46.5742 113.2 46.3906 112.743 46.3906C112.384 46.3906 112.089 46.5254 111.858 46.7949C111.569 47.1387 111.425 47.6504 111.425 48.3301ZM123.108 43.3906V45.1133H124.163V46.3145H123.108V49.7715C123.108 49.9863 123.146 50.1289 123.22 50.1992C123.298 50.2656 123.493 50.2988 123.806 50.2988L124.163 50.2754V51.5469C124.038 51.5625 123.897 51.5703 123.741 51.5703C123.585 51.5703 123.462 51.5703 123.372 51.5703H123.155C122.468 51.5703 121.997 51.4473 121.743 51.2012C121.532 51.002 121.427 50.6621 121.427 50.1816V46.3145H120.565V45.1133H121.427V43.3906H123.108ZM125.481 45.1133H127.163V51.5H125.481V45.1133ZM127.163 42.7871V44.3457H125.481V42.7871H127.163ZM134.722 47.082V51.5H133.04V47.6094C133.04 47.2578 132.993 46.9941 132.899 46.8184C132.731 46.5137 132.419 46.3613 131.962 46.3613C131.579 46.3613 131.263 46.4902 131.013 46.748C130.767 47.0059 130.644 47.3652 130.644 47.8262V51.5H128.962V45.1133H130.567V46.0508C130.763 45.7461 130.964 45.5137 131.171 45.3535C131.53 45.084 131.978 44.9492 132.513 44.9492C133.169 44.9492 133.692 45.125 134.083 45.4766C134.509 45.8594 134.722 46.3945 134.722 47.082ZM142.058 43.3906V45.1133H143.112V46.3145H142.058V49.7715C142.058 49.9863 142.095 50.1289 142.169 50.1992C142.247 50.2656 142.442 50.2988 142.755 50.2988L143.112 50.2754V51.5469C142.987 51.5625 142.847 51.5703 142.69 51.5703C142.534 51.5703 142.411 51.5703 142.321 51.5703H142.104C141.417 51.5703 140.946 51.4473 140.692 51.2012C140.481 51.002 140.376 50.6621 140.376 50.1816V46.3145H139.515V45.1133H140.376V43.3906H142.058ZM149.54 46.7949V50.252C149.54 50.5957 149.571 50.8359 149.634 50.9727C149.7 51.1094 149.798 51.1973 149.927 51.2363V51.5H148.104C148.038 51.2852 147.997 51.1445 147.981 51.0781C147.966 51.0078 147.958 50.8926 147.958 50.7324C147.7 51.0059 147.452 51.209 147.214 51.3418C146.831 51.5605 146.392 51.6699 145.896 51.6699C145.36 51.6699 144.915 51.5254 144.56 51.2363C144.153 50.9004 143.95 50.4199 143.95 49.7949C143.95 49.2051 144.126 48.7285 144.478 48.3652C144.79 48.0488 145.229 47.8457 145.796 47.7559L147.308 47.5391C147.534 47.5 147.69 47.4414 147.776 47.3633C147.866 47.2812 147.911 47.1719 147.911 47.0352C147.911 46.7227 147.782 46.5117 147.524 46.4023C147.356 46.3281 147.116 46.291 146.804 46.291C146.429 46.291 146.157 46.3906 145.989 46.5898C145.876 46.7188 145.804 46.916 145.772 47.1816H144.144C144.229 46.291 144.565 45.6738 145.151 45.3301C145.581 45.0762 146.196 44.9492 146.997 44.9492C147.646 44.9492 148.183 45.0566 148.608 45.2715C149.229 45.584 149.54 46.0918 149.54 46.7949ZM147.911 49.1973V48.3828C147.821 48.4609 147.698 48.5254 147.542 48.5762C147.386 48.623 147.124 48.6758 146.757 48.7344C146.39 48.793 146.126 48.8789 145.966 48.9922C145.743 49.1445 145.632 49.3809 145.632 49.7012C145.632 49.9629 145.72 50.1621 145.896 50.2988C146.04 50.4121 146.208 50.4688 146.399 50.4688C146.79 50.4688 147.14 50.3535 147.448 50.123C147.757 49.8887 147.911 49.5801 147.911 49.1973ZM147.642 52.2207V53.6094H146.13V52.2207H147.642ZM157.462 48.3066C157.462 49.4043 157.134 50.252 156.478 50.8496C155.888 51.3965 155.128 51.6699 154.198 51.6699C153.28 51.6699 152.524 51.3965 151.931 50.8496C151.267 50.2441 150.935 49.3965 150.935 48.3066C150.935 47.2129 151.263 46.3652 151.919 45.7637C152.509 45.2207 153.269 44.9492 154.198 44.9492C155.128 44.9492 155.888 45.2207 156.478 45.7637C157.134 46.3652 157.462 47.2129 157.462 48.3066ZM155.733 48.3066C155.733 47.7793 155.642 47.3555 155.458 47.0352C155.204 46.5859 154.784 46.3613 154.198 46.3613C153.624 46.3613 153.208 46.582 152.95 47.0234C152.759 47.3594 152.663 47.7871 152.663 48.3066C152.663 48.834 152.755 49.2578 152.938 49.5781C153.196 50.0273 153.616 50.252 154.198 50.252C154.776 50.252 155.192 50.0312 155.446 49.5898C155.638 49.2539 155.733 48.8262 155.733 48.3066ZM167.933 42.8867V51.5H166.274V50.6855C166.075 51.0215 165.808 51.2695 165.472 51.4297C165.136 51.5898 164.78 51.6699 164.405 51.6699C163.515 51.6699 162.831 51.3164 162.354 50.6094C161.929 49.9883 161.716 49.1973 161.716 48.2363C161.716 47.1816 161.979 46.3574 162.507 45.7637C162.995 45.2207 163.62 44.9492 164.382 44.9492C164.862 44.9492 165.271 45.0605 165.606 45.2832C165.845 45.4434 166.052 45.6602 166.228 45.9336L166.251 42.8867H167.933ZM163.444 48.3535C163.444 48.8262 163.54 49.2383 163.731 49.5898C163.981 50.0469 164.349 50.2754 164.833 50.2754C165.329 50.2754 165.71 50.0918 165.976 49.7246C166.206 49.3965 166.321 48.9727 166.321 48.4531C166.321 47.8516 166.226 47.3789 166.034 47.0352C165.796 46.6055 165.413 46.3906 164.886 46.3906C164.382 46.3906 164.005 46.5898 163.755 46.9883C163.548 47.3242 163.444 47.7793 163.444 48.3535ZM173.692 52.2207V53.6094H172.175V52.2207H173.692ZM175.608 45.3066C175.769 45.2207 175.868 45.1191 175.907 45.002C175.946 44.8848 175.966 44.7227 175.966 44.5156H175.345V43.5312H176.763V44.5391C176.763 44.8125 176.665 45.0566 176.47 45.2715C176.278 45.4863 175.991 45.6914 175.608 45.8867V51.5H174.003V50.5859C173.577 51.3086 172.921 51.6699 172.034 51.6699C171.362 51.6699 170.837 51.4805 170.458 51.1016C170.052 50.7031 169.849 50.1074 169.849 49.3145V45.1133H171.53V49.0742C171.53 49.5234 171.646 49.8438 171.876 50.0352C172.052 50.1797 172.304 50.252 172.632 50.252C172.968 50.252 173.253 50.1523 173.487 49.9531C173.78 49.6953 173.927 49.3066 173.927 48.7871V45.1133H175.608V45.3066ZM182.862 47.082V51.5H181.181V47.6094C181.181 47.2578 181.134 46.9941 181.04 46.8184C180.872 46.5137 180.56 46.3613 180.103 46.3613C179.72 46.3613 179.403 46.4902 179.153 46.748C178.907 47.0059 178.784 47.3652 178.784 47.8262V51.5H177.103V45.1133H178.708V46.0508C178.903 45.7461 179.104 45.5137 179.312 45.3535C179.671 45.084 180.118 44.9492 180.653 44.9492C181.31 44.9492 181.833 45.125 182.224 45.4766C182.649 45.8594 182.862 46.3945 182.862 47.082ZM189.044 45.1133H190.655V51.166C190.655 52.0059 190.511 52.6328 190.222 53.0469C189.726 53.7578 188.79 54.1133 187.415 54.1133C186.677 54.1133 186.048 53.9629 185.528 53.6621C184.931 53.3105 184.632 52.8223 184.632 52.1973H186.454C186.501 52.4043 186.585 52.5527 186.706 52.6426C186.882 52.7754 187.19 52.8418 187.632 52.8418C188.085 52.8418 188.421 52.7246 188.64 52.4902C188.862 52.2559 188.974 51.877 188.974 51.3535V50.5859L188.95 50.5625C188.728 50.957 188.464 51.2246 188.159 51.3652C187.909 51.4863 187.604 51.5469 187.245 51.5469C186.437 51.5469 185.784 51.2754 185.288 50.7324C184.753 50.1387 184.485 49.3066 184.485 48.2363C184.485 47.1816 184.749 46.3574 185.276 45.7637C185.765 45.2207 186.39 44.9492 187.151 44.9492C187.671 44.9492 188.103 45.0801 188.446 45.3418C188.669 45.5098 188.86 45.7461 189.021 46.0508L189.044 45.1133ZM186.214 48.3301C186.214 48.8105 186.31 49.207 186.501 49.5195C186.743 49.9102 187.095 50.1055 187.556 50.1055C188.067 50.1055 188.444 49.9102 188.687 49.5195C188.878 49.207 188.974 48.7871 188.974 48.2598C188.974 47.7168 188.854 47.2773 188.616 46.9414C188.351 46.5742 187.989 46.3906 187.532 46.3906C187.173 46.3906 186.878 46.5254 186.647 46.7949C186.358 47.1387 186.214 47.6504 186.214 48.3301ZM197.897 43.3906V45.1133H198.952V46.3145H197.897V49.7715C197.897 49.9863 197.935 50.1289 198.009 50.1992C198.087 50.2656 198.282 50.2988 198.595 50.2988L198.952 50.2754V51.5469C198.827 51.5625 198.687 51.5703 198.53 51.5703C198.374 51.5703 198.251 51.5703 198.161 51.5703H197.944C197.257 51.5703 196.786 51.4473 196.532 51.2012C196.321 51.002 196.216 50.6621 196.216 50.1816V46.3145H195.354V45.1133H196.216V43.3906H197.897ZM205.983 47.082V51.5H204.302V47.6094C204.302 47.2578 204.255 46.9941 204.161 46.8184C203.993 46.5137 203.681 46.3613 203.224 46.3613C202.841 46.3613 202.524 46.4902 202.274 46.748C202.028 47.0059 201.905 47.3652 201.905 47.8262V51.5H200.224V42.8867H201.905V45.9336C202.022 45.6602 202.255 45.4277 202.603 45.2363C202.954 45.0449 203.345 44.9492 203.774 44.9492C204.431 44.9492 204.954 45.125 205.345 45.4766C205.771 45.8594 205.983 46.3945 205.983 47.082ZM213.079 46.7949V50.252C213.079 50.5957 213.11 50.8359 213.173 50.9727C213.239 51.1094 213.337 51.1973 213.466 51.2363V51.5H211.644C211.577 51.2852 211.536 51.1445 211.521 51.0781C211.505 51.0078 211.497 50.8926 211.497 50.7324C211.239 51.0059 210.991 51.209 210.753 51.3418C210.37 51.5605 209.931 51.6699 209.435 51.6699C208.899 51.6699 208.454 51.5254 208.099 51.2363C207.692 50.9004 207.489 50.4199 207.489 49.7949C207.489 49.2051 207.665 48.7285 208.017 48.3652C208.329 48.0488 208.769 47.8457 209.335 47.7559L210.847 47.5391C211.073 47.5 211.229 47.4414 211.315 47.3633C211.405 47.2812 211.45 47.1719 211.45 47.0352C211.45 46.7227 211.321 46.5117 211.063 46.4023C210.896 46.3281 210.655 46.291 210.343 46.291C209.968 46.291 209.696 46.3906 209.528 46.5898C209.415 46.7188 209.343 46.916 209.312 47.1816H207.683C207.769 46.291 208.104 45.6738 208.69 45.3301C209.12 45.0762 209.735 44.9492 210.536 44.9492C211.185 44.9492 211.722 45.0566 212.147 45.2715C212.769 45.584 213.079 46.0918 213.079 46.7949ZM211.45 49.1973V48.3828C211.36 48.4609 211.237 48.5254 211.081 48.5762C210.925 48.623 210.663 48.6758 210.296 48.7344C209.929 48.793 209.665 48.8789 209.505 48.9922C209.282 49.1445 209.171 49.3809 209.171 49.7012C209.171 49.9629 209.259 50.1621 209.435 50.2988C209.579 50.4121 209.747 50.4688 209.938 50.4688C210.329 50.4688 210.679 50.3535 210.987 50.123C211.296 49.8887 211.45 49.5801 211.45 49.1973ZM209.892 44.252L208.14 42.5H209.985L211.11 44.252H209.892ZM220.573 47.082V51.5H218.892V47.6094C218.892 47.2578 218.845 46.9941 218.751 46.8184C218.583 46.5137 218.271 46.3613 217.813 46.3613C217.431 46.3613 217.114 46.4902 216.864 46.748C216.618 47.0059 216.495 47.3652 216.495 47.8262V51.5H214.813V45.1133H216.419V46.0508C216.614 45.7461 216.815 45.5137 217.022 45.3535C217.382 45.084 217.829 44.9492 218.364 44.9492C219.021 44.9492 219.544 45.125 219.935 45.4766C220.36 45.8594 220.573 46.3945 220.573 47.082ZM228.272 47.082V51.5H226.591V47.6094C226.591 47.2578 226.544 46.9941 226.45 46.8184C226.282 46.5137 225.97 46.3613 225.513 46.3613C225.13 46.3613 224.813 46.4902 224.563 46.748C224.317 47.0059 224.194 47.3652 224.194 47.8262V51.5H222.513V42.8867H224.194V45.9336C224.312 45.6602 224.544 45.4277 224.892 45.2363C225.243 45.0449 225.634 44.9492 226.063 44.9492C226.72 44.9492 227.243 45.125 227.634 45.4766C228.06 45.8594 228.272 46.3945 228.272 47.082ZM237.53 49.1738H239.235C239.169 49.7402 238.968 50.2363 238.632 50.6621C238.104 51.334 237.329 51.6699 236.306 51.6699C235.224 51.6699 234.431 51.3047 233.927 50.5742C233.544 50.0234 233.353 49.3242 233.353 48.4766C233.353 47.3867 233.593 46.543 234.073 45.9453C234.601 45.2812 235.384 44.9492 236.423 44.9492C237.11 44.9492 237.702 45.1055 238.198 45.418C238.89 45.8477 239.235 46.5078 239.235 47.3984H237.53C237.499 47.1406 237.411 46.9199 237.267 46.7363C237.063 46.4863 236.808 46.3613 236.499 46.3613H236.423C235.942 46.3613 235.587 46.5703 235.356 46.9883C235.173 47.3164 235.081 47.7246 235.081 48.2129C235.081 48.7715 235.138 49.1992 235.251 49.4961C235.45 50.0156 235.825 50.2754 236.376 50.2754C236.751 50.2754 237.052 50.127 237.278 49.8301C237.446 49.6074 237.53 49.3887 237.53 49.1738ZM246.817 48.3066C246.817 49.4043 246.489 50.252 245.833 50.8496C245.243 51.3965 244.483 51.6699 243.554 51.6699C242.636 51.6699 241.88 51.3965 241.286 50.8496C240.622 50.2441 240.29 49.3965 240.29 48.3066C240.29 47.2129 240.618 46.3652 241.274 45.7637C241.864 45.2207 242.624 44.9492 243.554 44.9492C244.483 44.9492 245.243 45.2207 245.833 45.7637C246.489 46.3652 246.817 47.2129 246.817 48.3066ZM245.089 48.3066C245.089 47.7793 244.997 47.3555 244.813 47.0352C244.56 46.5859 244.14 46.3613 243.554 46.3613C242.979 46.3613 242.563 46.582 242.306 47.0234C242.114 47.3594 242.019 47.7871 242.019 48.3066C242.019 48.834 242.11 49.2578 242.294 49.5781C242.552 50.0273 242.972 50.252 243.554 50.252C244.132 50.252 244.548 50.0312 244.802 49.5898C244.993 49.2539 245.089 48.8262 245.089 48.3066ZM244.31 42.6172L245.681 44.3691H244.31L243.542 43.3906L242.798 44.3691H241.433L242.798 42.6172H244.31ZM253.69 47.082V51.5H252.009V47.6094C252.009 47.2578 251.962 46.9941 251.868 46.8184C251.7 46.5137 251.388 46.3613 250.931 46.3613C250.548 46.3613 250.231 46.4902 249.981 46.748C249.735 47.0059 249.612 47.3652 249.612 47.8262V51.5H247.931V45.1133H249.536V46.0508C249.731 45.7461 249.933 45.5137 250.14 45.3535C250.499 45.084 250.946 44.9492 251.481 44.9492C252.138 44.9492 252.661 45.125 253.052 45.4766C253.478 45.8594 253.69 46.3945 253.69 47.082ZM259.872 45.1133H261.483V51.166C261.483 52.0059 261.339 52.6328 261.05 53.0469C260.554 53.7578 259.618 54.1133 258.243 54.1133C257.505 54.1133 256.876 53.9629 256.356 53.6621C255.759 53.3105 255.46 52.8223 255.46 52.1973H257.282C257.329 52.4043 257.413 52.5527 257.534 52.6426C257.71 52.7754 258.019 52.8418 258.46 52.8418C258.913 52.8418 259.249 52.7246 259.468 52.4902C259.69 52.2559 259.802 51.877 259.802 51.3535V50.5859L259.778 50.5625C259.556 50.957 259.292 51.2246 258.987 51.3652C258.737 51.4863 258.433 51.5469 258.073 51.5469C257.265 51.5469 256.612 51.2754 256.116 50.7324C255.581 50.1387 255.313 49.3066 255.313 48.2363C255.313 47.1816 255.577 46.3574 256.104 45.7637C256.593 45.2207 257.218 44.9492 257.979 44.9492C258.499 44.9492 258.931 45.0801 259.274 45.3418C259.497 45.5098 259.688 45.7461 259.849 46.0508L259.872 45.1133ZM257.042 48.3301C257.042 48.8105 257.138 49.207 257.329 49.5195C257.571 49.9102 257.923 50.1055 258.384 50.1055C258.896 50.1055 259.272 49.9102 259.515 49.5195C259.706 49.207 259.802 48.7871 259.802 48.2598C259.802 47.7168 259.683 47.2773 259.444 46.9414C259.179 46.5742 258.817 46.3906 258.36 46.3906C258.001 46.3906 257.706 46.5254 257.476 46.7949C257.187 47.1387 257.042 47.6504 257.042 48.3301Z" fill="white"/>
</svg>
