<svg width="262" height="70" viewBox="0 0 262 70" fill="none" xmlns="http://www.w3.org/2000/svg">
<path fill-rule="evenodd" clip-rule="evenodd" d="M32.0244 9.94903L32.5923 2.32949C32.6871 1.05192 33.6402 0 34.9214 0C36.2027 0 37.1557 1.05192 37.2509 2.32949L37.8172 9.93097C42.616 10.4643 47.0086 12.3439 50.6087 15.1835L56.3991 10.196C57.3698 9.35987 58.7872 9.29012 59.6935 10.196C60.5994 11.1019 60.5296 12.5197 59.6935 13.4904L54.7176 19.2669C57.5809 22.8507 59.4875 27.2322 60.0506 32.0247L67.6707 32.5927C68.9482 32.6879 70.0002 33.6409 70.0002 34.9222C70.0002 36.2035 68.9482 37.1565 67.6707 37.2517L60.0685 37.818C59.5351 42.6163 57.6557 47.0083 54.8165 50.6081L59.8043 56.3989C60.6404 57.3696 60.7102 58.7871 59.8043 59.6934C58.8984 60.5992 57.4805 60.5295 56.5099 59.6934L50.7331 54.7172C47.1495 57.5805 42.768 59.4872 37.9756 60.0505L37.4076 67.6705C37.3124 68.9481 36.3593 70 35.0781 70C33.7968 70 32.8438 68.9481 32.7486 67.6705L32.1823 60.0686C27.3836 59.5352 22.9911 57.6557 19.3911 54.8162L13.6003 59.8041C12.6296 60.6402 11.2121 60.7099 10.3059 59.8041C9.39998 58.8982 9.46973 57.4803 10.3059 56.5096L15.2821 50.7328C12.4188 47.1491 10.5122 42.7676 9.94903 37.9752L2.32949 37.4072C1.05192 37.312 0 36.359 0 35.0777C0 33.7965 1.05192 32.8434 2.32949 32.7482L9.93102 32.1819C10.4644 27.3835 12.3438 22.9913 15.1831 19.3914L10.1955 13.6008C9.35938 12.6301 9.28963 11.2126 10.1955 10.3063C11.1014 9.40047 12.5192 9.47022 13.4899 10.3063L19.2667 15.2821C22.8504 12.4188 27.2319 10.5122 32.0244 9.94903ZM52.8578 34.9998C52.8578 25.137 44.8626 17.1417 34.9998 17.1417C25.1374 17.1417 17.1421 25.137 17.1421 34.9998C17.1421 44.8626 25.137 52.8578 34.9998 52.8578C44.8626 52.8578 52.8578 44.8626 52.8578 34.9998Z" fill="#1F306E"/>
<path d="M52.8583 34.9998C52.8583 25.137 44.863 17.1417 35.0002 17.1417C25.1378 17.1417 17.1426 25.137 17.1426 34.9998C17.1426 44.8626 25.1374 52.8578 35.0002 52.8578C44.863 52.8578 52.8583 44.8626 52.8583 34.9998Z" fill="white"/>
<path fill-rule="evenodd" clip-rule="evenodd" d="M57.3518 36.0907C57.941 36.032 58.4665 36.462 58.5252 37.0515C58.5839 37.6411 58.1539 38.1662 57.5643 38.2249C56.9752 38.2836 56.4497 37.8536 56.391 37.2641C56.3319 36.6749 56.7623 36.1494 57.3518 36.0907ZM37.0872 20.3718C42.2171 19.7625 43.8848 22.0551 47.6092 25.7586C52.7724 26.7904 59.5603 30.8754 60.7751 36.366C61.0635 37.6686 60.5445 40.7316 60.4559 42.072C60.3677 43.4123 61.2141 45.2298 61.8447 46.1496C62.4752 47.0694 62.666 48.3503 62.3739 48.9181C62.0818 49.4859 61.018 49.3066 60.5753 49.0022C60.133 48.6974 55.872 44.1135 55.8503 43.894C55.8285 43.6741 54.6982 44.1036 53.6217 44.1159C52.5452 44.1282 50.9291 43.4964 49.2064 42.115C47.4837 40.7333 46.8654 40.89 45.9522 40.9495C45.0389 41.009 41.4159 43.7787 40.5457 44.9114C39.6759 46.0442 39.2271 46.3108 38.7467 46.2637C38.2667 46.2165 38.3019 43.7085 37.7001 42.1204C37.0978 40.5318 36.0475 38.259 32.6612 37.3601C27.713 36.0468 14.9689 41.0857 11.4685 44.5602C11.4685 44.5602 11.4582 44.5738 11.3093 44.8125C8.90393 48.6658 10.3025 50.9358 8.95275 51.3875C7.60297 51.8388 7.08727 49.6873 7.0405 49.058C6.99373 48.4286 6.99373 48.4286 6.99373 48.4286C6.99373 48.4286 6.81157 49.3029 5.92622 49.803C5.04086 50.3031 2.26295 51.0556 1.00302 50.3409C-2.92404 48.114 7.57795 42.9705 8.11991 42.4133C8.66638 41.8517 15.27 33.0223 21.8248 29.1359C28.3801 25.2494 38.4739 25.0681 38.4739 25.0681C37.9467 24.3034 35.2619 20.6988 37.0872 20.3718Z" fill="#FFF200"/>
<path d="M58.5254 37.0515C58.4667 36.462 57.9412 36.032 57.352 36.0907C56.7625 36.1494 56.3321 36.6749 56.3912 37.264C56.4498 37.8536 56.9754 38.2836 57.5645 38.2249C58.1541 38.1662 58.584 37.6411 58.5254 37.0515Z" fill="#1F306E"/>
<path fill-rule="evenodd" clip-rule="evenodd" d="M52.1554 52.5202L47.873 48.9111L49.4079 47.0895C49.7931 46.632 50.1131 46.3321 50.3638 46.1898C50.6161 46.0462 50.8926 45.9961 51.1937 46.0371C51.4965 46.0786 51.7734 46.2045 52.027 46.4179C52.349 46.6891 52.5349 47.0062 52.5854 47.3709C52.6362 47.7361 52.5308 48.1275 52.2695 48.5488C52.5357 48.454 52.7839 48.4015 53.0161 48.3913C53.2496 48.3798 53.6196 48.4118 54.1255 48.4873L55.4006 48.669L54.53 49.7025L53.0723 49.5343C52.5529 49.4768 52.2153 49.4534 52.0586 49.4625C51.9043 49.4719 51.771 49.5088 51.6618 49.5736C51.5519 49.6397 51.4136 49.7714 51.245 49.9708L51.0977 50.1464L52.8857 51.6533L52.1554 52.5202ZM50.4163 49.5716L50.9554 48.9316C51.3049 48.5168 51.5043 48.2436 51.5568 48.1102C51.6085 47.9781 51.6167 47.8448 51.5798 47.7151C51.5433 47.5839 51.4604 47.4645 51.3312 47.3562C51.1868 47.2343 51.0387 47.1756 50.884 47.1769C50.7305 47.1785 50.5833 47.24 50.443 47.3603C50.3736 47.423 50.1906 47.6286 49.8957 47.9785L49.327 48.6534L50.4163 49.5716Z" fill="#FFF200"/>
<path fill-rule="evenodd" clip-rule="evenodd" d="M49.3227 54.9215L48.258 55.5201L47.2114 54.6458L45.2537 55.747L45.4731 57.0861L44.4278 57.674L43.5781 51.7268L44.6227 51.1393L49.3227 54.9215ZM46.427 54.0009L44.733 52.576L45.0895 54.7529L46.427 54.0009Z" fill="#FFF200"/>
<path fill-rule="evenodd" clip-rule="evenodd" d="M39.2884 59.0796L38.3698 54.5174L36.7443 54.8448L36.5576 53.9168L40.9122 53.04L41.0993 53.9681L39.482 54.2934L40.4006 58.856L39.2884 59.0796Z" fill="#FFF200"/>
<path fill-rule="evenodd" clip-rule="evenodd" d="M29.1858 57.1082L30.2935 57.1434C30.3116 57.518 30.4084 57.8023 30.586 58.0009C30.7637 58.1986 31.0226 58.3201 31.3627 58.3644C31.7217 58.4116 32.0031 58.371 32.2058 58.2421C32.408 58.1137 32.5229 57.9476 32.55 57.7437C32.5672 57.6116 32.543 57.4955 32.4794 57.3921C32.4146 57.2903 32.2907 57.1927 32.1085 57.1004C31.9838 57.0364 31.6974 56.9174 31.247 56.7397C30.6685 56.5112 30.2722 56.2724 30.0597 56.0222C29.7598 55.6714 29.6395 55.2755 29.697 54.8349C29.7343 54.5518 29.8496 54.2962 30.0412 54.0706C30.2336 53.8445 30.4888 53.687 30.8063 53.5975C31.1247 53.5073 31.4952 53.4909 31.9219 53.5466C32.616 53.6377 33.119 53.8605 33.4288 54.215C33.7398 54.5707 33.8694 55.0051 33.8202 55.5237L32.6907 55.4146C32.68 55.1217 32.605 54.9026 32.4655 54.7565C32.3247 54.6109 32.0983 54.5165 31.7857 54.4755C31.4624 54.4328 31.2002 54.4673 31.0004 54.5776C30.8716 54.6486 30.7969 54.7561 30.778 54.9005C30.7608 55.0326 30.8018 55.1524 30.9003 55.2603C31.0258 55.3986 31.352 55.568 31.8792 55.7686C32.4068 55.968 32.7912 56.1551 33.0321 56.3262C33.2753 56.4989 33.455 56.7131 33.5703 56.9715C33.6864 57.23 33.7217 57.5344 33.6758 57.8848C33.6339 58.2028 33.5071 58.4899 33.293 58.7447C33.0796 58.9983 32.8031 59.173 32.4622 59.2649C32.1208 59.3581 31.7089 59.372 31.2273 59.3092C30.5253 59.2169 30.0076 58.9847 29.674 58.6114C29.34 58.238 29.1784 57.7371 29.1858 57.1082Z" fill="#FFF200"/>
<path fill-rule="evenodd" clip-rule="evenodd" d="M25.9216 57.8451L24.8492 57.2604L25.0346 55.9098L23.0621 54.8354L22.0434 55.7322L20.9902 55.1591L25.5782 51.2804L26.6306 51.8535L25.9216 57.8451ZM25.1639 54.9026L25.4716 52.7106L23.8166 54.1683L25.1639 54.9026Z" fill="#FFF200"/>
<path fill-rule="evenodd" clip-rule="evenodd" d="M15.4912 49.8945L19.6119 46.1016L22.4194 49.1519L21.7227 49.7927L19.6833 47.5773L18.7688 48.4196L20.6647 50.4791L19.9684 51.1203L18.0722 49.06L16.9555 50.0877L19.0691 52.384L18.3725 53.0252L15.4912 49.8945Z" fill="#FFF200"/>
<path d="M85.0312 31.5234L86.3438 28.3203C87.5156 29.112 88.4714 29.5078 89.2109 29.5078C89.8151 29.5078 90.1172 29.3099 90.1172 28.9141C90.1172 28.5964 89.7135 28.3516 88.9062 28.1797C88.7448 28.1484 88.5417 28.1068 88.2969 28.0547C86.5365 27.6276 85.6562 26.5964 85.6562 24.9609C85.6562 23.6484 86.1354 22.6146 87.0938 21.8594C87.9792 21.1562 89.0938 20.8047 90.4375 20.8047C91.75 20.8047 93.0365 21.151 94.2969 21.8438L93.0469 24.8359C92.6094 24.5286 92.2135 24.3047 91.8594 24.1641C91.4688 24.013 91.0807 23.9375 90.6953 23.9375C90.0964 23.9375 89.7969 24.1198 89.7969 24.4844C89.7969 24.8021 90.3672 25.0833 91.5078 25.3281C91.6172 25.3542 91.7578 25.388 91.9297 25.4297C92.6953 25.6016 93.3099 25.9609 93.7734 26.5078C94.237 27.0547 94.4688 27.7188 94.4688 28.5C94.4688 29.8438 93.974 30.9167 92.9844 31.7188C92.0677 32.4427 90.9141 32.8047 89.5234 32.8047C88.013 32.8047 86.5156 32.3776 85.0312 31.5234ZM99.2109 28.3438H100.93L100.57 27.0469C100.294 26.0312 100.141 25.1927 100.109 24.5312H100.031C100 25.1927 99.8438 26.0312 99.5625 27.0469L99.2109 28.3438ZM93.7578 32.5L97.8359 21.0625H102.414L106.414 32.5H102L101.633 31.0625H98.5234L98.1719 32.5H93.7578ZM112.484 28.9609C113.094 28.9609 113.576 28.7474 113.93 28.3203C114.247 27.9297 114.406 27.4245 114.406 26.8047C114.406 26.1745 114.247 25.6615 113.93 25.2656C113.576 24.8385 113.094 24.625 112.484 24.625C111.87 24.625 111.393 24.8307 111.055 25.2422C110.721 25.6536 110.555 26.1745 110.555 26.8047C110.555 27.4349 110.721 27.9531 111.055 28.3594C111.393 28.7604 111.87 28.9609 112.484 28.9609ZM118.602 26.8047C118.602 27.6589 118.451 28.4375 118.148 29.1406C117.831 29.8854 117.398 30.5312 116.852 31.0781C115.68 32.2292 114.224 32.8047 112.484 32.8047C110.75 32.8047 109.289 32.224 108.102 31.0625C106.951 29.9323 106.375 28.513 106.375 26.8047C106.375 25.0859 106.956 23.6562 108.117 22.5156C109.279 21.375 110.734 20.8047 112.484 20.8047C114.234 20.8047 115.69 21.375 116.852 22.5156C118.018 23.6562 118.602 25.0859 118.602 26.8047ZM125.805 32.5V21.0625H130.719C132.328 21.0625 133.529 21.349 134.32 21.9219C135.247 22.5938 135.711 23.6979 135.711 25.2344C135.711 26.6562 135.305 27.6745 134.492 28.2891C133.779 28.8464 132.685 29.125 131.211 29.125H129.914V32.5H125.805ZM129.93 24.2422V26.1484H130.57C130.956 26.1484 131.255 26.0625 131.469 25.8906C131.682 25.7188 131.789 25.4896 131.789 25.2031C131.789 24.5625 131.383 24.2422 130.57 24.2422H129.93ZM137.133 32.5V21.0625H141.242V24.8672H143.758V21.0625H147.867V32.5H143.758V28.4688H141.242V32.5H137.133ZM149.891 27.2656V21.0781H154V27.3125C154 27.901 154.049 28.3281 154.148 28.5938C154.32 29.0104 154.651 29.2188 155.141 29.2188C155.63 29.2188 155.961 29.0104 156.133 28.5938C156.237 28.3177 156.289 27.8906 156.289 27.3125V21.0781H160.406V23.6328C160.906 23.4297 161.141 22.5885 161.109 21.1094H162.352C162.31 22.3229 162.125 23.1693 161.797 23.6484C161.516 24.0443 161.052 24.2969 160.406 24.4062V27.2656C160.406 28.8021 160.182 29.9115 159.734 30.5938C158.76 32.0677 157.229 32.8047 155.141 32.8047C153.026 32.8047 151.495 32.0677 150.547 30.5938C150.333 30.2656 150.167 29.8281 150.047 29.2812C149.943 28.7812 149.891 28.1094 149.891 27.2656ZM168.25 28.9609C168.859 28.9609 169.341 28.7474 169.695 28.3203C170.013 27.9297 170.172 27.4245 170.172 26.8047C170.172 26.1745 170.013 25.6615 169.695 25.2656C169.341 24.8385 168.859 24.625 168.25 24.625C167.635 24.625 167.159 24.8307 166.82 25.2422C166.487 25.6536 166.32 26.1745 166.32 26.8047C166.32 27.4349 166.487 27.9531 166.82 28.3594C167.159 28.7604 167.635 28.9609 168.25 28.9609ZM174.367 26.8047V26.7891C174.367 27.6432 174.216 28.4219 173.914 29.125C173.596 29.8698 173.164 30.5156 172.617 31.0625C171.445 32.2135 169.99 32.7891 168.25 32.7891C166.516 32.7891 165.055 32.2083 163.867 31.0469C162.716 29.9167 162.141 28.4974 162.141 26.7891C162.141 25.0703 162.721 23.6406 163.883 22.5C165.044 21.3594 166.5 20.7891 168.25 20.7891C169.115 20.7891 169.917 20.9323 170.656 21.2188C171.359 21.4948 172.018 21.9271 172.633 22.5156C172.956 22.8125 173.203 23.112 173.375 23.4141C173.682 23.3828 173.896 23.138 174.016 22.6797C174.099 22.3047 174.13 21.6953 174.109 20.8516H175.359C175.37 22.0443 175.24 22.888 174.969 23.3828C174.734 23.8307 174.331 24.0859 173.758 24.1484C174.164 24.9245 174.367 25.8099 174.367 26.8047ZM176.086 32.5V21.0625H180.117L183.672 27.0469C183.583 26.5625 183.539 25.8464 183.539 24.8984V21.0625H187.508V32.5H183.445L179.93 26.5625C180.013 27.0208 180.055 27.625 180.055 28.375V32.5H176.086ZM196.883 28.4062H195.094V25.7188H201.414C201.424 25.8542 201.435 26.0286 201.445 26.2422V26.5469C201.445 27.8698 201.201 28.9479 200.711 29.7812C200.133 30.7604 199.378 31.5104 198.445 32.0312C197.513 32.5469 196.469 32.8047 195.312 32.8047C193.552 32.8047 192.094 32.237 190.938 31.1016C189.781 29.9661 189.203 28.5339 189.203 26.8047C189.203 25.0964 189.776 23.6693 190.922 22.5234C192.068 21.3776 193.531 20.8047 195.312 20.8047C197.714 20.8047 199.5 21.8125 200.672 23.8281L197.008 25.1875C196.638 24.5573 196.096 24.2422 195.383 24.2422C194.711 24.2422 194.198 24.5104 193.844 25.0469C193.536 25.5052 193.383 26.0911 193.383 26.8047C193.383 27.5495 193.542 28.1458 193.859 28.5938C194.224 29.099 194.763 29.3516 195.477 29.3516C196.32 29.3516 196.789 29.0365 196.883 28.4062ZM212.445 29.3125C212.503 29.3229 212.573 29.3281 212.656 29.3281H212.914C214.758 29.3281 215.68 28.4714 215.68 26.7578C215.68 25.0703 214.753 24.2266 212.898 24.2266H212.641C212.552 24.2266 212.492 24.2318 212.461 24.2422L212.445 25.4453H214.078V27.9375H212.445V29.3125ZM208.656 32.5V28.0391H207.359V25.3516H208.656V21.0625H211.984C214.094 21.0625 215.602 21.3021 216.508 21.7812C218.56 22.8594 219.586 24.5286 219.586 26.7891C219.586 29.0391 218.56 30.7031 216.508 31.7812C215.602 32.2604 213.987 32.5 211.664 32.5H208.656ZM227 28.9609C227.609 28.9609 228.091 28.7474 228.445 28.3203C228.763 27.9297 228.922 27.4245 228.922 26.8047C228.922 26.1745 228.763 25.6615 228.445 25.2656C228.091 24.8385 227.609 24.625 227 24.625C226.385 24.625 225.909 24.8307 225.57 25.2422C225.237 25.6536 225.07 26.1745 225.07 26.8047C225.07 27.4349 225.237 27.9531 225.57 28.3594C225.909 28.7604 226.385 28.9609 227 28.9609ZM233.117 26.8047C233.117 27.6589 232.966 28.4375 232.664 29.1406C232.346 29.8854 231.914 30.5312 231.367 31.0781C230.195 32.2292 228.74 32.8047 227 32.8047C225.266 32.8047 223.805 32.224 222.617 31.0625C221.466 29.9323 220.891 28.513 220.891 26.8047C220.891 25.0859 221.471 23.6562 222.633 22.5156C223.794 21.375 225.25 20.8047 227 20.8047C228.75 20.8047 230.206 21.375 231.367 22.5156C232.534 23.6562 233.117 25.0859 233.117 26.8047ZM224.875 20.4062L226.008 18.3594H227.719L228.859 20.4062H227.898L226.875 19.4141L225.836 20.4062H224.875ZM234.836 32.5V21.0625H238.867L242.422 27.0469C242.333 26.5625 242.289 25.8464 242.289 24.8984V21.0625H246.258V32.5H242.195L238.68 26.5625C238.763 27.0208 238.805 27.625 238.805 28.375V32.5H234.836ZM255.633 28.4062H253.844V25.7188H260.164C260.174 25.8542 260.185 26.0286 260.195 26.2422V26.5469C260.195 27.8698 259.951 28.9479 259.461 29.7812C258.883 30.7604 258.128 31.5104 257.195 32.0312C256.263 32.5469 255.219 32.8047 254.062 32.8047C252.302 32.8047 250.844 32.237 249.688 31.1016C248.531 29.9661 247.953 28.5339 247.953 26.8047C247.953 25.0964 248.526 23.6693 249.672 22.5234C250.818 21.3776 252.281 20.8047 254.062 20.8047C256.464 20.8047 258.25 21.8125 259.422 23.8281L255.758 25.1875C255.388 24.5573 254.846 24.2422 254.133 24.2422C253.461 24.2422 252.948 24.5104 252.594 25.0469C252.286 25.5052 252.133 26.0911 252.133 26.8047C252.133 27.5495 252.292 28.1458 252.609 28.5938C252.974 29.099 253.513 29.3516 254.227 29.3516C255.07 29.3516 255.539 29.0365 255.633 28.4062Z" fill="#1F306E"/>
<path d="M87.707 42.8867V49.9414H92.002V51.5H85.9082V42.8867H87.707ZM99.6777 48.3066C99.6777 49.4043 99.3496 50.252 98.6934 50.8496C98.1035 51.3965 97.3438 51.6699 96.4141 51.6699C95.4961 51.6699 94.7402 51.3965 94.1465 50.8496C93.4824 50.2441 93.1504 49.3965 93.1504 48.3066C93.1504 47.2129 93.4785 46.3652 94.1348 45.7637C94.7246 45.2207 95.4844 44.9492 96.4141 44.9492C97.3438 44.9492 98.1035 45.2207 98.6934 45.7637C99.3496 46.3652 99.6777 47.2129 99.6777 48.3066ZM97.9492 48.3066C97.9492 47.7793 97.8574 47.3555 97.6738 47.0352C97.4199 46.5859 97 46.3613 96.4141 46.3613C95.8398 46.3613 95.4238 46.582 95.166 47.0234C94.9746 47.3594 94.8789 47.7871 94.8789 48.3066C94.8789 48.834 94.9707 49.2578 95.1543 49.5781C95.4121 50.0273 95.832 50.252 96.4141 50.252C96.9922 50.252 97.4082 50.0312 97.6621 49.5898C97.8535 49.2539 97.9492 48.8262 97.9492 48.3066ZM95.834 44.252L94.082 42.5H95.9336L97.0586 44.252H95.834ZM106.551 47.082V51.5H104.869V47.6094C104.869 47.2578 104.822 46.9941 104.729 46.8184C104.561 46.5137 104.248 46.3613 103.791 46.3613C103.408 46.3613 103.092 46.4902 102.842 46.748C102.596 47.0059 102.473 47.3652 102.473 47.8262V51.5H100.791V45.1133H102.396V46.0508C102.592 45.7461 102.793 45.5137 103 45.3535C103.359 45.084 103.807 44.9492 104.342 44.9492C104.998 44.9492 105.521 45.125 105.912 45.4766C106.338 45.8594 106.551 46.3945 106.551 47.082ZM112.732 45.1133H114.344V51.166C114.344 52.0059 114.199 52.6328 113.91 53.0469C113.414 53.7578 112.479 54.1133 111.104 54.1133C110.365 54.1133 109.736 53.9629 109.217 53.6621C108.619 53.3105 108.32 52.8223 108.32 52.1973H110.143C110.189 52.4043 110.273 52.5527 110.395 52.6426C110.57 52.7754 110.879 52.8418 111.32 52.8418C111.773 52.8418 112.109 52.7246 112.328 52.4902C112.551 52.2559 112.662 51.877 112.662 51.3535V50.5859L112.639 50.5625C112.416 50.957 112.152 51.2246 111.848 51.3652C111.598 51.4863 111.293 51.5469 110.934 51.5469C110.125 51.5469 109.473 51.2754 108.977 50.7324C108.441 50.1387 108.174 49.3066 108.174 48.2363C108.174 47.1816 108.438 46.3574 108.965 45.7637C109.453 45.2207 110.078 44.9492 110.84 44.9492C111.359 44.9492 111.791 45.0801 112.135 45.3418C112.357 45.5098 112.549 45.7461 112.709 46.0508L112.732 45.1133ZM109.902 48.3301C109.902 48.8105 109.998 49.207 110.189 49.5195C110.432 49.9102 110.783 50.1055 111.244 50.1055C111.756 50.1055 112.133 49.9102 112.375 49.5195C112.566 49.207 112.662 48.7871 112.662 48.2598C112.662 47.7168 112.543 47.2773 112.305 46.9414C112.039 46.5742 111.678 46.3906 111.221 46.3906C110.861 46.3906 110.566 46.5254 110.336 46.7949C110.047 47.1387 109.902 47.6504 109.902 48.3301ZM121.586 43.3906V45.1133H122.641V46.3145H121.586V49.7715C121.586 49.9863 121.623 50.1289 121.697 50.1992C121.775 50.2656 121.971 50.2988 122.283 50.2988L122.641 50.2754V51.5469C122.516 51.5625 122.375 51.5703 122.219 51.5703C122.062 51.5703 121.939 51.5703 121.85 51.5703H121.633C120.945 51.5703 120.475 51.4473 120.221 51.2012C120.01 51.002 119.904 50.6621 119.904 50.1816V46.3145H119.043V45.1133H119.904V43.3906H121.586ZM123.959 45.1133H125.641V51.5H123.959V45.1133ZM125.641 42.7871V44.3457H123.959V42.7871H125.641ZM133.199 47.082V51.5H131.518V47.6094C131.518 47.2578 131.471 46.9941 131.377 46.8184C131.209 46.5137 130.896 46.3613 130.439 46.3613C130.057 46.3613 129.74 46.4902 129.49 46.748C129.244 47.0059 129.121 47.3652 129.121 47.8262V51.5H127.439V45.1133H129.045V46.0508C129.24 45.7461 129.441 45.5137 129.648 45.3535C130.008 45.084 130.455 44.9492 130.99 44.9492C131.646 44.9492 132.17 45.125 132.561 45.4766C132.986 45.8594 133.199 46.3945 133.199 47.082ZM140.535 43.3906V45.1133H141.59V46.3145H140.535V49.7715C140.535 49.9863 140.572 50.1289 140.646 50.1992C140.725 50.2656 140.92 50.2988 141.232 50.2988L141.59 50.2754V51.5469C141.465 51.5625 141.324 51.5703 141.168 51.5703C141.012 51.5703 140.889 51.5703 140.799 51.5703H140.582C139.895 51.5703 139.424 51.4473 139.17 51.2012C138.959 51.002 138.854 50.6621 138.854 50.1816V46.3145H137.992V45.1133H138.854V43.3906H140.535ZM148.018 46.7949V50.252C148.018 50.5957 148.049 50.8359 148.111 50.9727C148.178 51.1094 148.275 51.1973 148.404 51.2363V51.5H146.582C146.516 51.2852 146.475 51.1445 146.459 51.0781C146.443 51.0078 146.436 50.8926 146.436 50.7324C146.178 51.0059 145.93 51.209 145.691 51.3418C145.309 51.5605 144.869 51.6699 144.373 51.6699C143.838 51.6699 143.393 51.5254 143.037 51.2363C142.631 50.9004 142.428 50.4199 142.428 49.7949C142.428 49.2051 142.604 48.7285 142.955 48.3652C143.268 48.0488 143.707 47.8457 144.273 47.7559L145.785 47.5391C146.012 47.5 146.168 47.4414 146.254 47.3633C146.344 47.2812 146.389 47.1719 146.389 47.0352C146.389 46.7227 146.26 46.5117 146.002 46.4023C145.834 46.3281 145.594 46.291 145.281 46.291C144.906 46.291 144.635 46.3906 144.467 46.5898C144.354 46.7188 144.281 46.916 144.25 47.1816H142.621C142.707 46.291 143.043 45.6738 143.629 45.3301C144.059 45.0762 144.674 44.9492 145.475 44.9492C146.123 44.9492 146.66 45.0566 147.086 45.2715C147.707 45.584 148.018 46.0918 148.018 46.7949ZM146.389 49.1973V48.3828C146.299 48.4609 146.176 48.5254 146.02 48.5762C145.863 48.623 145.602 48.6758 145.234 48.7344C144.867 48.793 144.604 48.8789 144.443 48.9922C144.221 49.1445 144.109 49.3809 144.109 49.7012C144.109 49.9629 144.197 50.1621 144.373 50.2988C144.518 50.4121 144.686 50.4688 144.877 50.4688C145.268 50.4688 145.617 50.3535 145.926 50.123C146.234 49.8887 146.389 49.5801 146.389 49.1973ZM146.119 52.2207V53.6094H144.607V52.2207H146.119ZM155.939 48.3066C155.939 49.4043 155.611 50.252 154.955 50.8496C154.365 51.3965 153.605 51.6699 152.676 51.6699C151.758 51.6699 151.002 51.3965 150.408 50.8496C149.744 50.2441 149.412 49.3965 149.412 48.3066C149.412 47.2129 149.74 46.3652 150.396 45.7637C150.986 45.2207 151.746 44.9492 152.676 44.9492C153.605 44.9492 154.365 45.2207 154.955 45.7637C155.611 46.3652 155.939 47.2129 155.939 48.3066ZM154.211 48.3066C154.211 47.7793 154.119 47.3555 153.936 47.0352C153.682 46.5859 153.262 46.3613 152.676 46.3613C152.102 46.3613 151.686 46.582 151.428 47.0234C151.236 47.3594 151.141 47.7871 151.141 48.3066C151.141 48.834 151.232 49.2578 151.416 49.5781C151.674 50.0273 152.094 50.252 152.676 50.252C153.254 50.252 153.67 50.0312 153.924 49.5898C154.115 49.2539 154.211 48.8262 154.211 48.3066ZM166.41 42.8867V51.5H164.752V50.6855C164.553 51.0215 164.285 51.2695 163.949 51.4297C163.613 51.5898 163.258 51.6699 162.883 51.6699C161.992 51.6699 161.309 51.3164 160.832 50.6094C160.406 49.9883 160.193 49.1973 160.193 48.2363C160.193 47.1816 160.457 46.3574 160.984 45.7637C161.473 45.2207 162.098 44.9492 162.859 44.9492C163.34 44.9492 163.748 45.0605 164.084 45.2832C164.322 45.4434 164.529 45.6602 164.705 45.9336L164.729 42.8867H166.41ZM161.922 48.3535C161.922 48.8262 162.018 49.2383 162.209 49.5898C162.459 50.0469 162.826 50.2754 163.311 50.2754C163.807 50.2754 164.188 50.0918 164.453 49.7246C164.684 49.3965 164.799 48.9727 164.799 48.4531C164.799 47.8516 164.703 47.3789 164.512 47.0352C164.273 46.6055 163.891 46.3906 163.363 46.3906C162.859 46.3906 162.482 46.5898 162.232 46.9883C162.025 47.3242 161.922 47.7793 161.922 48.3535ZM172.17 52.2207V53.6094H170.652V52.2207H172.17ZM174.086 45.3066C174.246 45.2207 174.346 45.1191 174.385 45.002C174.424 44.8848 174.443 44.7227 174.443 44.5156H173.822V43.5312H175.24V44.5391C175.24 44.8125 175.143 45.0566 174.947 45.2715C174.756 45.4863 174.469 45.6914 174.086 45.8867V51.5H172.48V50.5859C172.055 51.3086 171.398 51.6699 170.512 51.6699C169.84 51.6699 169.314 51.4805 168.936 51.1016C168.529 50.7031 168.326 50.1074 168.326 49.3145V45.1133H170.008V49.0742C170.008 49.5234 170.123 49.8438 170.354 50.0352C170.529 50.1797 170.781 50.252 171.109 50.252C171.445 50.252 171.73 50.1523 171.965 49.9531C172.258 49.6953 172.404 49.3066 172.404 48.7871V45.1133H174.086V45.3066ZM181.34 47.082V51.5H179.658V47.6094C179.658 47.2578 179.611 46.9941 179.518 46.8184C179.35 46.5137 179.037 46.3613 178.58 46.3613C178.197 46.3613 177.881 46.4902 177.631 46.748C177.385 47.0059 177.262 47.3652 177.262 47.8262V51.5H175.58V45.1133H177.186V46.0508C177.381 45.7461 177.582 45.5137 177.789 45.3535C178.148 45.084 178.596 44.9492 179.131 44.9492C179.787 44.9492 180.311 45.125 180.701 45.4766C181.127 45.8594 181.34 46.3945 181.34 47.082ZM187.521 45.1133H189.133V51.166C189.133 52.0059 188.988 52.6328 188.699 53.0469C188.203 53.7578 187.268 54.1133 185.893 54.1133C185.154 54.1133 184.525 53.9629 184.006 53.6621C183.408 53.3105 183.109 52.8223 183.109 52.1973H184.932C184.979 52.4043 185.062 52.5527 185.184 52.6426C185.359 52.7754 185.668 52.8418 186.109 52.8418C186.562 52.8418 186.898 52.7246 187.117 52.4902C187.34 52.2559 187.451 51.877 187.451 51.3535V50.5859L187.428 50.5625C187.205 50.957 186.941 51.2246 186.637 51.3652C186.387 51.4863 186.082 51.5469 185.723 51.5469C184.914 51.5469 184.262 51.2754 183.766 50.7324C183.23 50.1387 182.963 49.3066 182.963 48.2363C182.963 47.1816 183.227 46.3574 183.754 45.7637C184.242 45.2207 184.867 44.9492 185.629 44.9492C186.148 44.9492 186.58 45.0801 186.924 45.3418C187.146 45.5098 187.338 45.7461 187.498 46.0508L187.521 45.1133ZM184.691 48.3301C184.691 48.8105 184.787 49.207 184.979 49.5195C185.221 49.9102 185.572 50.1055 186.033 50.1055C186.545 50.1055 186.922 49.9102 187.164 49.5195C187.355 49.207 187.451 48.7871 187.451 48.2598C187.451 47.7168 187.332 47.2773 187.094 46.9414C186.828 46.5742 186.467 46.3906 186.01 46.3906C185.65 46.3906 185.355 46.5254 185.125 46.7949C184.836 47.1387 184.691 47.6504 184.691 48.3301ZM196.375 43.3906V45.1133H197.43V46.3145H196.375V49.7715C196.375 49.9863 196.412 50.1289 196.486 50.1992C196.564 50.2656 196.76 50.2988 197.072 50.2988L197.43 50.2754V51.5469C197.305 51.5625 197.164 51.5703 197.008 51.5703C196.852 51.5703 196.729 51.5703 196.639 51.5703H196.422C195.734 51.5703 195.264 51.4473 195.01 51.2012C194.799 51.002 194.693 50.6621 194.693 50.1816V46.3145H193.832V45.1133H194.693V43.3906H196.375ZM204.461 47.082V51.5H202.779V47.6094C202.779 47.2578 202.732 46.9941 202.639 46.8184C202.471 46.5137 202.158 46.3613 201.701 46.3613C201.318 46.3613 201.002 46.4902 200.752 46.748C200.506 47.0059 200.383 47.3652 200.383 47.8262V51.5H198.701V42.8867H200.383V45.9336C200.5 45.6602 200.732 45.4277 201.08 45.2363C201.432 45.0449 201.822 44.9492 202.252 44.9492C202.908 44.9492 203.432 45.125 203.822 45.4766C204.248 45.8594 204.461 46.3945 204.461 47.082ZM211.557 46.7949V50.252C211.557 50.5957 211.588 50.8359 211.65 50.9727C211.717 51.1094 211.814 51.1973 211.943 51.2363V51.5H210.121C210.055 51.2852 210.014 51.1445 209.998 51.0781C209.982 51.0078 209.975 50.8926 209.975 50.7324C209.717 51.0059 209.469 51.209 209.23 51.3418C208.848 51.5605 208.408 51.6699 207.912 51.6699C207.377 51.6699 206.932 51.5254 206.576 51.2363C206.17 50.9004 205.967 50.4199 205.967 49.7949C205.967 49.2051 206.143 48.7285 206.494 48.3652C206.807 48.0488 207.246 47.8457 207.812 47.7559L209.324 47.5391C209.551 47.5 209.707 47.4414 209.793 47.3633C209.883 47.2812 209.928 47.1719 209.928 47.0352C209.928 46.7227 209.799 46.5117 209.541 46.4023C209.373 46.3281 209.133 46.291 208.82 46.291C208.445 46.291 208.174 46.3906 208.006 46.5898C207.893 46.7188 207.82 46.916 207.789 47.1816H206.16C206.246 46.291 206.582 45.6738 207.168 45.3301C207.598 45.0762 208.213 44.9492 209.014 44.9492C209.662 44.9492 210.199 45.0566 210.625 45.2715C211.246 45.584 211.557 46.0918 211.557 46.7949ZM209.928 49.1973V48.3828C209.838 48.4609 209.715 48.5254 209.559 48.5762C209.402 48.623 209.141 48.6758 208.773 48.7344C208.406 48.793 208.143 48.8789 207.982 48.9922C207.76 49.1445 207.648 49.3809 207.648 49.7012C207.648 49.9629 207.736 50.1621 207.912 50.2988C208.057 50.4121 208.225 50.4688 208.416 50.4688C208.807 50.4688 209.156 50.3535 209.465 50.123C209.773 49.8887 209.928 49.5801 209.928 49.1973ZM208.369 44.252L206.617 42.5H208.463L209.588 44.252H208.369ZM219.051 47.082V51.5H217.369V47.6094C217.369 47.2578 217.322 46.9941 217.229 46.8184C217.061 46.5137 216.748 46.3613 216.291 46.3613C215.908 46.3613 215.592 46.4902 215.342 46.748C215.096 47.0059 214.973 47.3652 214.973 47.8262V51.5H213.291V45.1133H214.896V46.0508C215.092 45.7461 215.293 45.5137 215.5 45.3535C215.859 45.084 216.307 44.9492 216.842 44.9492C217.498 44.9492 218.021 45.125 218.412 45.4766C218.838 45.8594 219.051 46.3945 219.051 47.082ZM226.75 47.082V51.5H225.068V47.6094C225.068 47.2578 225.021 46.9941 224.928 46.8184C224.76 46.5137 224.447 46.3613 223.99 46.3613C223.607 46.3613 223.291 46.4902 223.041 46.748C222.795 47.0059 222.672 47.3652 222.672 47.8262V51.5H220.99V42.8867H222.672V45.9336C222.789 45.6602 223.021 45.4277 223.369 45.2363C223.721 45.0449 224.111 44.9492 224.541 44.9492C225.197 44.9492 225.721 45.125 226.111 45.4766C226.537 45.8594 226.75 46.3945 226.75 47.082ZM236.008 49.1738H237.713C237.646 49.7402 237.445 50.2363 237.109 50.6621C236.582 51.334 235.807 51.6699 234.783 51.6699C233.701 51.6699 232.908 51.3047 232.404 50.5742C232.021 50.0234 231.83 49.3242 231.83 48.4766C231.83 47.3867 232.07 46.543 232.551 45.9453C233.078 45.2812 233.861 44.9492 234.9 44.9492C235.588 44.9492 236.18 45.1055 236.676 45.418C237.367 45.8477 237.713 46.5078 237.713 47.3984H236.008C235.977 47.1406 235.889 46.9199 235.744 46.7363C235.541 46.4863 235.285 46.3613 234.977 46.3613H234.9C234.42 46.3613 234.064 46.5703 233.834 46.9883C233.65 47.3164 233.559 47.7246 233.559 48.2129C233.559 48.7715 233.615 49.1992 233.729 49.4961C233.928 50.0156 234.303 50.2754 234.854 50.2754C235.229 50.2754 235.529 50.127 235.756 49.8301C235.924 49.6074 236.008 49.3887 236.008 49.1738ZM245.295 48.3066C245.295 49.4043 244.967 50.252 244.311 50.8496C243.721 51.3965 242.961 51.6699 242.031 51.6699C241.113 51.6699 240.357 51.3965 239.764 50.8496C239.1 50.2441 238.768 49.3965 238.768 48.3066C238.768 47.2129 239.096 46.3652 239.752 45.7637C240.342 45.2207 241.102 44.9492 242.031 44.9492C242.961 44.9492 243.721 45.2207 244.311 45.7637C244.967 46.3652 245.295 47.2129 245.295 48.3066ZM243.566 48.3066C243.566 47.7793 243.475 47.3555 243.291 47.0352C243.037 46.5859 242.617 46.3613 242.031 46.3613C241.457 46.3613 241.041 46.582 240.783 47.0234C240.592 47.3594 240.496 47.7871 240.496 48.3066C240.496 48.834 240.588 49.2578 240.771 49.5781C241.029 50.0273 241.449 50.252 242.031 50.252C242.609 50.252 243.025 50.0312 243.279 49.5898C243.471 49.2539 243.566 48.8262 243.566 48.3066ZM242.787 42.6172L244.158 44.3691H242.787L242.02 43.3906L241.275 44.3691H239.91L241.275 42.6172H242.787ZM252.168 47.082V51.5H250.486V47.6094C250.486 47.2578 250.439 46.9941 250.346 46.8184C250.178 46.5137 249.865 46.3613 249.408 46.3613C249.025 46.3613 248.709 46.4902 248.459 46.748C248.213 47.0059 248.09 47.3652 248.09 47.8262V51.5H246.408V45.1133H248.014V46.0508C248.209 45.7461 248.41 45.5137 248.617 45.3535C248.977 45.084 249.424 44.9492 249.959 44.9492C250.615 44.9492 251.139 45.125 251.529 45.4766C251.955 45.8594 252.168 46.3945 252.168 47.082ZM258.35 45.1133H259.961V51.166C259.961 52.0059 259.816 52.6328 259.527 53.0469C259.031 53.7578 258.096 54.1133 256.721 54.1133C255.982 54.1133 255.354 53.9629 254.834 53.6621C254.236 53.3105 253.938 52.8223 253.938 52.1973H255.76C255.807 52.4043 255.891 52.5527 256.012 52.6426C256.188 52.7754 256.496 52.8418 256.938 52.8418C257.391 52.8418 257.727 52.7246 257.945 52.4902C258.168 52.2559 258.279 51.877 258.279 51.3535V50.5859L258.256 50.5625C258.033 50.957 257.77 51.2246 257.465 51.3652C257.215 51.4863 256.91 51.5469 256.551 51.5469C255.742 51.5469 255.09 51.2754 254.594 50.7324C254.059 50.1387 253.791 49.3066 253.791 48.2363C253.791 47.1816 254.055 46.3574 254.582 45.7637C255.07 45.2207 255.695 44.9492 256.457 44.9492C256.977 44.9492 257.408 45.0801 257.752 45.3418C257.975 45.5098 258.166 45.7461 258.326 46.0508L258.35 45.1133ZM255.52 48.3301C255.52 48.8105 255.615 49.207 255.807 49.5195C256.049 49.9102 256.4 50.1055 256.861 50.1055C257.373 50.1055 257.75 49.9102 257.992 49.5195C258.184 49.207 258.279 48.7871 258.279 48.2598C258.279 47.7168 258.16 47.2773 257.922 46.9414C257.656 46.5742 257.295 46.3906 256.838 46.3906C256.479 46.3906 256.184 46.5254 255.953 46.7949C255.664 47.1387 255.52 47.6504 255.52 48.3301Z" fill="#1F306E"/>
</svg>
