<svg width="30" height="30" viewBox="0 0 30 30" fill="none" xmlns="http://www.w3.org/2000/svg">
<path d="M0.5 11.1C0.5 5.24578 5.24578 0.5 11.1 0.5H18.9C24.7542 0.5 29.5 5.24578 29.5 11.1V18.9C29.5 24.7542 24.7542 29.5 18.9 29.5H11.1C5.24578 29.5 0.5 24.7542 0.5 18.9V11.1Z" stroke="white"/>
<path d="M24.9375 15C24.9375 20.488 20.488 24.9375 15 24.9375C9.51201 24.9375 5.0625 20.488 5.0625 15C5.0625 9.51201 9.51201 5.0625 15 5.0625C20.488 5.0625 24.9375 9.51201 24.9375 15Z" fill="white"/>
<path d="M8.81518 14.8592C12.2883 13.3313 16.7826 11.4686 17.4031 11.2107C19.0304 10.5359 19.5298 10.6651 19.2808 12.1597C19.102 13.2339 18.5862 16.7901 18.1748 19.0037C17.9308 20.3164 17.3833 20.4719 16.5227 19.904C16.1088 19.6307 14.0194 18.2489 13.5658 17.9244C13.1519 17.6288 12.581 17.273 13.297 16.5724C13.5519 16.323 15.2219 14.7281 16.5232 13.4869C16.6936 13.3239 16.4795 13.0561 16.2827 13.1867C14.5287 14.3499 12.097 15.9643 11.7875 16.1745C11.3199 16.492 10.8707 16.6375 10.0648 16.406C9.45565 16.2311 8.86089 16.0224 8.62935 15.9429C7.73746 15.6368 7.94913 15.2403 8.81518 14.8592Z" fill="#10375C"/>
</svg>
