<svg width="60" height="60" viewBox="0 0 60 60" fill="none" xmlns="http://www.w3.org/2000/svg">
<path d="M30 15C39.475 15 47.925 20.325 52.05 28.75C47.925 37.175 39.475 42.5 30 42.5C20.525 42.5 12.075 37.175 7.95 28.75C12.075 20.325 20.525 15 30 15ZM30 10C17.5 10 6.825 17.775 2.5 28.75C6.825 39.725 17.5 47.5 30 47.5C42.5 47.5 53.175 39.725 57.5 28.75C53.175 17.775 42.5 10 30 10ZM30 22.5C33.45 22.5 36.25 25.3 36.25 28.75C36.25 32.2 33.45 35 30 35C26.55 35 23.75 32.2 23.75 28.75C23.75 25.3 26.55 22.5 30 22.5ZM30 17.5C23.8 17.5 18.75 22.55 18.75 28.75C18.75 34.95 23.8 40 30 40C36.2 40 41.25 34.95 41.25 28.75C41.25 22.55 36.2 17.5 30 17.5Z" fill="white"/>
</svg>
