<svg width="30" height="30" viewBox="0 0 30 30" fill="none" xmlns="http://www.w3.org/2000/svg">
<path d="M0.5 11.1C0.5 5.24578 5.24578 0.5 11.1 0.5H18.9C24.7542 0.5 29.5 5.24578 29.5 11.1V18.9C29.5 24.7542 24.7542 29.5 18.9 29.5H11.1C5.24578 29.5 0.5 24.7542 0.5 18.9V11.1Z" stroke="white"/>
<path d="M21.848 8.1514C20.0513 6.3539 17.6006 5.44695 15.0273 5.65406C11.5678 5.93192 8.53544 8.33779 7.52063 11.6567C6.79576 14.028 7.10038 16.5038 8.28088 18.5489L7.16251 22.2622C7.05551 22.6185 7.38083 22.9542 7.74068 22.8584L11.6273 21.8169C12.8864 22.5038 14.3033 22.8653 15.7461 22.8662H15.7496C19.3696 22.8662 22.7144 20.6519 23.8716 17.2217C24.9986 13.877 24.165 10.471 21.848 8.1514ZM19.9676 17.321C19.7881 17.8241 18.9088 18.309 18.5136 18.3444C18.1184 18.3807 17.7482 18.523 15.9291 17.8059C13.7398 16.943 12.3574 14.6985 12.2504 14.5553C12.1425 14.4111 11.3711 13.3877 11.3711 12.328C11.3711 11.2683 11.9276 10.7471 12.1253 10.5322C12.3229 10.3165 12.5559 10.263 12.7 10.263C12.8432 10.263 12.9873 10.263 13.1125 10.2682C13.2661 10.2742 13.4361 10.282 13.5974 10.6401C13.789 11.0664 14.2075 12.1313 14.261 12.2391C14.3145 12.347 14.3508 12.473 14.2792 12.6162C14.2075 12.7595 14.1713 12.8492 14.0643 12.9752C13.9564 13.1012 13.8382 13.2557 13.7415 13.3523C13.6337 13.4593 13.5215 13.5767 13.6466 13.7916C13.7726 14.0073 14.2041 14.7123 14.8444 15.2827C15.6676 16.0162 16.3606 16.2432 16.5763 16.3519C16.792 16.4598 16.9172 16.4416 17.0431 16.2975C17.1691 16.1543 17.5816 15.6693 17.7249 15.4536C17.8681 15.2378 18.0122 15.2741 18.2098 15.3457C18.4074 15.4173 19.4663 15.9385 19.6811 16.0464C19.8969 16.1543 20.0401 16.2078 20.0936 16.2975C20.1471 16.3864 20.1471 16.8179 19.9676 17.321Z" fill="white"/>
</svg>
