<svg width="30" height="30" viewBox="0 0 30 30" fill="none" xmlns="http://www.w3.org/2000/svg">
<path d="M0.5 11.1C0.5 5.24578 5.24578 0.5 11.1 0.5H18.9C24.7542 0.5 29.5 5.24578 29.5 11.1V18.9C29.5 24.7542 24.7542 29.5 18.9 29.5H11.1C5.24578 29.5 0.5 24.7542 0.5 18.9V11.1Z" stroke="white"/>
<path d="M16.2891 0H12.45C11.1008 0 9.81677 0.267637 8.63726 0.741487C6.20001 3.10781 4.40625 6.96735 4.40625 10.2375C4.40625 15.1888 5.0907 18.0875 7.12065 20.9189C7.2786 21.139 7.38171 21.3964 7.3956 21.6662C7.42704 22.2768 7.30127 23.3956 6.20074 24.4025C6.08228 24.5108 6.15759 24.7089 6.31774 24.7155C7.00657 24.7455 8.39668 24.7053 9.82554 24.0742C10.2328 23.8943 10.6965 23.9258 11.0899 24.1349C13.5125 25.4212 16.3498 25.5937 19.0312 25.5937C22.4506 25.5937 25.8604 24.8332 28.1112 23.4614C29.2965 21.7905 30 19.754 30 17.55V15.795V13.7109C30 6.1386 23.8614 0 16.2891 0Z" fill="white"/>
<path d="M24.2344 15.5625C22.8133 15.5625 21.6562 14.4054 21.6562 12.9844C21.6562 11.5633 22.8133 10.4062 24.2344 10.4062C25.6554 10.4062 26.8125 11.5633 26.8125 12.9844C26.8125 14.4054 25.6554 15.5625 24.2344 15.5625ZM24.2344 11.4375C23.3819 11.4375 22.6875 12.1319 22.6875 12.9844C22.6875 13.8369 23.3819 14.5312 24.2344 14.5312C25.0869 14.5312 25.7812 13.8369 25.7812 12.9844C25.7812 12.1319 25.0869 11.4375 24.2344 11.4375Z" fill="#10375C"/>
<path d="M20.625 15.5625H19.9375C19.7477 15.5625 19.5938 15.4085 19.5938 15.2188V9.375H20.625V15.5625Z" fill="#10375C"/>
<path d="M17.5312 10.5781V10.9349C17.0988 10.6077 16.5667 10.4062 15.9844 10.4062C14.5633 10.4062 13.4062 11.5633 13.4062 12.9844C13.4062 14.4054 14.5633 15.5625 15.9844 15.5625C16.5667 15.5625 17.0988 15.3611 17.5312 15.0338V15.2188C17.5312 15.4085 17.6852 15.5625 17.875 15.5625H18.5625V10.5781H17.5312ZM15.9844 14.5312C15.1319 14.5312 14.4375 13.8369 14.4375 12.9844C14.4375 12.1319 15.1319 11.4375 15.9844 11.4375C16.8369 11.4375 17.5312 12.1319 17.5312 12.9844C17.5312 13.8369 16.8369 14.5312 15.9844 14.5312Z" fill="#10375C"/>
<path d="M13.5781 9.375H8.07812V10.4062H11.7363L7.90625 14.875H7.92412C7.81206 15.0201 7.73438 15.1933 7.73438 15.3906V15.5625H12.8906C13.0804 15.5625 13.2344 15.4085 13.2344 15.2188V14.5312H9.57619L13.4062 10.0625H13.3884C13.5004 9.91744 13.5781 9.74419 13.5781 9.54688V9.375Z" fill="#10375C"/>
</svg>
